<svg width="117" height="15" viewBox="0 0 117 15" fill="none" xmlns="http://www.w3.org/2000/svg">
<path d="M5.91024 14.9664C4.42014 14.9664 3.16646 14.6533 2.14918 14.0271C1.1319 13.3874 0.415508 12.523 0 11.4341L2.53603 10.0252C3.12347 11.4817 4.27686 12.2099 5.99621 12.2099C6.82722 12.2099 7.43615 12.067 7.823 11.7812C8.20986 11.4953 8.40328 11.1346 8.40328 10.699C8.40328 10.1954 8.16687 9.80742 7.69406 9.53518C7.22124 9.24933 6.37589 8.94306 5.15803 8.61638C4.48462 8.42581 3.9115 8.23524 3.43868 8.04467C2.98019 7.8541 2.51454 7.60228 2.04172 7.28921C1.58323 6.96252 1.2322 6.55416 0.988622 6.06413C0.745049 5.5741 0.623262 5.0024 0.623262 4.34902C0.623262 3.05588 1.10324 2.02818 2.06321 1.26591C3.0375 0.490031 4.20522 0.102089 5.56637 0.102089C6.78424 0.102089 7.85166 0.387939 8.76864 0.959642C9.69995 1.51773 10.4235 2.30042 10.9393 3.30771L8.44627 4.67571C7.8445 3.45063 6.88453 2.83809 5.56637 2.83809C4.95027 2.83809 4.46312 2.97421 4.10493 3.24645C3.76106 3.50508 3.58913 3.84538 3.58913 4.26735C3.58913 4.71655 3.78255 5.08407 4.1694 5.36992C4.57058 5.64216 5.32996 5.94162 6.44753 6.26831C6.90602 6.40443 7.24989 6.51332 7.47914 6.595C7.72271 6.66306 8.04509 6.77876 8.44627 6.9421C8.86177 7.09183 9.17699 7.23476 9.3919 7.37088C9.62115 7.507 9.87905 7.69076 10.1656 7.92217C10.4522 8.15357 10.6671 8.39178 10.8104 8.6368C10.968 8.88181 11.0969 9.18127 11.1972 9.53518C11.3118 9.87548 11.3691 10.2498 11.3691 10.6582C11.3691 11.9785 10.8605 13.0267 9.84323 13.8025C8.84028 14.5784 7.52928 14.9664 5.91024 14.9664ZM18.3615 7.00336H15.933V11.2503C15.933 11.6042 16.0261 11.8628 16.2124 12.0262C16.3986 12.1895 16.6708 12.2848 17.029 12.312C17.3872 12.3256 17.8314 12.3188 18.3615 12.2916V14.6805C16.4559 14.8847 15.1091 14.7145 14.3211 14.1701C13.5474 13.6256 13.1605 12.6523 13.1605 11.2503V7.00336H11.2907V4.47153H13.1605V2.40932L15.933 1.61302V4.47153H18.3615V7.00336ZM27.5027 4.47153H30.2751V14.6805H27.5027V13.4758C26.6717 14.4695 25.504 14.9664 23.9995 14.9664C22.5668 14.9664 21.3346 14.4491 20.303 13.4146C19.2857 12.3665 18.777 11.0869 18.777 9.57602C18.777 8.06509 19.2857 6.79237 20.303 5.75786C21.3346 4.70974 22.5668 4.18568 23.9995 4.18568C25.504 4.18568 26.6717 4.68252 27.5027 5.67619V4.47153ZM22.3877 11.6586C22.9464 12.1895 23.6557 12.455 24.5153 12.455C25.375 12.455 26.0842 12.1895 26.643 11.6586C27.2161 11.1142 27.5027 10.42 27.5027 9.57602C27.5027 8.73208 27.2161 8.04467 26.643 7.51381C26.0842 6.96933 25.375 6.69709 24.5153 6.69709C23.6557 6.69709 22.9464 6.96933 22.3877 7.51381C21.8289 8.04467 21.5495 8.73208 21.5495 9.57602C21.5495 10.42 21.8289 11.1142 22.3877 11.6586ZM34.917 6.22747C35.1749 5.5741 35.5975 5.08407 36.185 4.75738C36.7867 4.43069 37.453 4.26735 38.1837 4.26735V7.20753C37.3384 7.11225 36.579 7.2756 35.9056 7.69757C35.2465 8.11954 34.917 8.82055 34.917 9.80061V14.6805H32.1445V4.47153H34.917V6.22747ZM45.6008 7.00336H43.1722V11.2503C43.1722 11.6042 43.2653 11.8628 43.4516 12.0262C43.6379 12.1895 43.9101 12.2848 44.2683 12.312C44.6265 12.3256 45.0706 12.3188 45.6008 12.2916V14.6805C43.6952 14.8847 42.3483 14.7145 41.5603 14.1701C40.7866 13.6256 40.3998 12.6523 40.3998 11.2503V7.00336H38.53V4.47153H40.3998V2.40932L43.1722 1.61302V4.47153H45.6008V7.00336ZM54.3646 7.37088C54.3646 7.64312 54.5509 7.86772 54.9234 8.04467C55.3103 8.20802 55.7759 8.35775 56.3204 8.49387C56.8648 8.61637 57.4093 8.77972 57.9538 8.9839C58.4982 9.17447 58.9567 9.50115 59.3292 9.96396C59.7161 10.4268 59.9095 11.0053 59.9095 11.6995C59.9095 12.7476 59.494 13.5575 58.663 14.1292C57.8463 14.6873 56.8219 14.9664 55.5897 14.9664C53.3832 14.9664 51.8787 14.1564 51.0764 12.5366L53.4835 11.2503C53.7987 12.1351 54.5008 12.5775 55.5897 12.5775C56.5783 12.5775 57.0726 12.2848 57.0726 11.6995C57.0726 11.4272 56.8792 11.2095 56.4923 11.0461C56.1198 10.8692 55.6613 10.7126 55.1168 10.5765C54.5724 10.4404 54.0279 10.2702 53.4835 10.0661C52.939 9.86187 52.4734 9.54199 52.0865 9.1064C51.714 8.65721 51.5277 8.09912 51.5277 7.43213C51.5277 6.42485 51.9146 5.63535 52.6883 5.06365C53.4763 4.47833 54.4506 4.18568 55.6112 4.18568C56.4852 4.18568 57.2803 4.37625 57.9967 4.75738C58.7131 5.1249 59.2791 5.65577 59.6946 6.34998L57.3305 7.57506C56.9866 6.88085 56.4135 6.53374 55.6112 6.53374C55.253 6.53374 54.9521 6.60861 54.7085 6.75834C54.4793 6.90807 54.3646 7.11225 54.3646 7.37088ZM66.8792 7.00336H64.4506V11.2503C64.4506 11.6042 64.5438 11.8628 64.73 12.0262C64.9163 12.1895 65.1885 12.2848 65.5467 12.312C65.9049 12.3256 66.3491 12.3188 66.8792 12.2916V14.6805C64.9736 14.8847 63.6268 14.7145 62.8388 14.1701C62.0651 13.6256 61.6782 12.6523 61.6782 11.2503V7.00336H59.8084V4.47153H61.6782V2.40932L64.4506 1.61302V4.47153H66.8792V7.00336ZM75.4497 4.47153H78.2221V14.6805H75.4497V13.5371C74.7762 14.4899 73.7088 14.9664 72.2474 14.9664C71.0725 14.9664 70.0982 14.592 69.3245 13.8434C68.5651 13.0947 68.1854 12.0602 68.1854 10.7398V4.47153H70.9579V10.4132C70.9579 11.0938 71.1513 11.6178 71.5382 11.9853C71.925 12.3392 72.4408 12.5162 73.0856 12.5162C73.802 12.5162 74.3751 12.3052 74.8049 11.8833C75.2347 11.4613 75.4497 10.8283 75.4497 9.98438V4.47153ZM88.2619 0.387939H91.0344V14.6805H88.2619V13.4758C87.4452 14.4695 86.2847 14.9664 84.7803 14.9664C83.3332 14.9664 82.0938 14.4491 81.0622 13.4146C80.0449 12.3665 79.5363 11.0869 79.5363 9.57602C79.5363 8.06509 80.0449 6.79237 81.0622 5.75786C82.0938 4.70974 83.3332 4.18568 84.7803 4.18568C86.2847 4.18568 87.4452 4.68252 88.2619 5.67619V0.387939ZM83.1469 11.6586C83.72 12.1895 84.4364 12.455 85.2961 12.455C86.1557 12.455 86.865 12.1895 87.4238 11.6586C87.9825 11.1142 88.2619 10.42 88.2619 9.57602C88.2619 8.73208 87.9825 8.04467 87.4238 7.51381C86.865 6.96933 86.1557 6.69709 85.2961 6.69709C84.4364 6.69709 83.72 6.96933 83.1469 7.51381C82.5881 8.04467 82.3087 8.73208 82.3087 9.57602C82.3087 10.42 82.5881 11.1142 83.1469 11.6586ZM94.3007 3.24645C93.8422 3.24645 93.441 3.08992 93.0972 2.77684C92.7676 2.45016 92.6029 2.06902 92.6029 1.63344C92.6029 1.19785 92.7676 0.816717 93.0972 0.49003C93.441 0.163343 93.8422 0 94.3007 0C94.7735 0 95.1747 0.163343 95.5043 0.49003C95.8481 0.816717 96.0201 1.19785 96.0201 1.63344C96.0201 2.06902 95.8481 2.45016 95.5043 2.77684C95.1747 3.08992 94.7735 3.24645 94.3007 3.24645ZM92.9253 14.6805V4.47153H95.6977V14.6805H92.9253ZM106.746 13.4146C105.642 14.4491 104.296 14.9664 102.705 14.9664C101.115 14.9664 99.768 14.4491 98.6647 13.4146C97.5758 12.3665 97.0314 11.0869 97.0314 9.57602C97.0314 8.06509 97.5758 6.79237 98.6647 5.75786C99.768 4.70974 101.115 4.18568 102.705 4.18568C104.296 4.18568 105.642 4.70974 106.746 5.75786C107.849 6.79237 108.401 8.06509 108.401 9.57602C108.401 11.0869 107.849 12.3665 106.746 13.4146ZM100.62 11.5974C101.179 12.1283 101.874 12.3937 102.705 12.3937C103.536 12.3937 104.231 12.1283 104.79 11.5974C105.349 11.0665 105.628 10.3927 105.628 9.57602C105.628 8.7593 105.349 8.08551 104.79 7.55464C104.231 7.02378 103.536 6.75834 102.705 6.75834C101.874 6.75834 101.179 7.02378 100.62 7.55464C100.076 8.08551 99.8038 8.7593 99.8038 9.57602C99.8038 10.3927 100.076 11.0665 100.62 11.5974Z" fill="#141414"/>
<path d="M116.353 14.386C115.922 14.7955 115.405 15.0004 114.801 15.0004C114.197 15.0004 113.68 14.7955 113.249 14.386C112.818 13.9765 112.602 13.4849 112.602 12.9113C112.602 12.3377 112.818 11.8462 113.249 11.4367C113.68 11.0272 114.197 10.8223 114.801 10.8223C115.405 10.8223 115.922 11.0272 116.353 11.4367C116.784 11.8462 117 12.3377 117 12.9113C117 13.4849 116.784 13.9765 116.353 14.386Z" fill="#FF5D2A"/>
</svg>
