<svg width="141" height="19" viewBox="0 0 141 19" fill="none" xmlns="http://www.w3.org/2000/svg">
<path d="M7.12259 18.9574C5.32684 18.9574 3.81598 18.5608 2.59003 17.7677C1.36409 16.9573 0.50074 15.8625 0 14.4831L3.05624 12.6986C3.76418 14.5435 5.15417 15.4659 7.2262 15.4659C8.22768 15.4659 8.96152 15.2849 9.42772 14.9228C9.89393 14.5607 10.127 14.1038 10.127 13.5521C10.127 12.9141 9.84213 12.4227 9.27232 12.0779C8.70252 11.7158 7.68377 11.3279 6.21608 10.9141C5.40454 10.6727 4.71386 10.4313 4.14405 10.1899C3.59151 9.94853 3.03034 9.62956 2.46053 9.233C1.90799 8.81919 1.48495 8.30194 1.19142 7.68124C0.897879 7.06053 0.751111 6.33637 0.751111 5.50876C0.751111 3.87079 1.32955 2.56903 2.48643 1.60349C3.66058 0.620706 5.06783 0.129312 6.70819 0.129312C8.17587 0.129312 9.46226 0.491389 10.5673 1.21555C11.6897 1.92246 12.5617 2.91387 13.1833 4.18976L10.1788 5.92256C9.45363 4.3708 8.29674 3.59492 6.70819 3.59492C5.96571 3.59492 5.37864 3.76733 4.94696 4.11217C4.53256 4.43977 4.32536 4.87082 4.32536 5.40531C4.32536 5.97429 4.55846 6.43982 5.02467 6.8019C5.50814 7.14674 6.42328 7.52606 7.7701 7.93986C8.32264 8.11228 8.73705 8.25021 9.01332 8.35366C9.30686 8.43987 9.69536 8.58643 10.1788 8.79333C10.6796 8.98299 11.0594 9.16403 11.3184 9.33645C11.5947 9.50887 11.9055 9.74163 12.2509 10.0347C12.5962 10.3279 12.8552 10.6296 13.0279 10.9399C13.2178 11.2503 13.3732 11.6296 13.4941 12.0779C13.6322 12.5089 13.7013 12.9831 13.7013 13.5003C13.7013 15.1728 13.0883 16.5004 11.8624 17.4832C10.6537 18.466 9.07375 18.9574 7.12259 18.9574ZM22.128 8.87092H19.2013V14.2504C19.2013 14.6987 19.3135 15.0262 19.538 15.2332C19.7624 15.4401 20.0905 15.5607 20.5222 15.5952C20.9539 15.6125 21.4891 15.6039 22.128 15.5694V18.5953C19.8315 18.8539 18.2084 18.6384 17.2587 17.9487C16.3263 17.2591 15.8601 16.0263 15.8601 14.2504V8.87092H13.6068V5.66394H15.8601V3.0518L19.2013 2.04316V5.66394H22.128V8.87092ZM33.1443 5.66394H36.4854V18.5953H33.1443V17.0694C32.1428 18.3281 30.7356 18.9574 28.9225 18.9574C27.1958 18.9574 25.7109 18.3022 24.4677 16.9918C23.2417 15.6642 22.6287 14.0435 22.6287 12.1296C22.6287 10.2158 23.2417 8.60367 24.4677 7.29329C25.7109 5.96567 27.1958 5.30186 28.9225 5.30186C30.7356 5.30186 32.1428 5.93119 33.1443 7.18984V5.66394ZM26.98 14.7676C27.6534 15.4401 28.5081 15.7763 29.5441 15.7763C30.5801 15.7763 31.4349 15.4401 32.1083 14.7676C32.7989 14.0779 33.1443 13.1986 33.1443 12.1296C33.1443 11.0606 32.7989 10.1899 32.1083 9.51749C31.4349 8.82782 30.5801 8.48298 29.5441 8.48298C28.5081 8.48298 27.6534 8.82782 26.98 9.51749C26.3066 10.1899 25.9699 11.0606 25.9699 12.1296C25.9699 13.1986 26.3066 14.0779 26.98 14.7676ZM42.0794 7.88813C42.3902 7.06053 42.8996 6.43982 43.6075 6.02602C44.3327 5.61221 45.1357 5.40531 46.0163 5.40531V9.12954C44.9975 9.00885 44.0824 9.21575 43.2708 9.75025C42.4766 10.2847 42.0794 11.1727 42.0794 12.4141V18.5953H38.7383V5.66394H42.0794V7.88813ZM54.9548 8.87092H52.028V14.2504C52.028 14.6987 52.1403 15.0262 52.3647 15.2332C52.5892 15.4401 52.9173 15.5607 53.349 15.5952C53.7806 15.6125 54.3159 15.6039 54.9548 15.5694V18.5953C52.6583 18.8539 51.0352 18.6384 50.0855 17.9487C49.1531 17.2591 48.6869 16.0263 48.6869 14.2504V8.87092H46.4336V5.66394H48.6869V3.0518L52.028 2.04316V5.66394H54.9548V8.87092ZM65.5164 9.33645C65.5164 9.68128 65.7408 9.96577 66.1898 10.1899C66.656 10.3968 67.2171 10.5865 67.8733 10.7589C68.5294 10.9141 69.1856 11.121 69.8417 11.3796C70.4978 11.621 71.0504 12.0348 71.4993 12.621C71.9655 13.2072 72.1986 13.94 72.1986 14.8193C72.1986 16.147 71.6979 17.1729 70.6964 17.897C69.7122 18.6039 68.4776 18.9574 66.9927 18.9574C64.3336 18.9574 62.5205 17.9315 61.5536 15.8797L64.4544 14.2504C64.8343 15.3711 65.6804 15.9314 66.9927 15.9314C68.1841 15.9314 68.7798 15.5607 68.7798 14.8193C68.7798 14.4745 68.5467 14.1986 68.0805 13.9917C67.6315 13.7676 67.079 13.5693 66.4229 13.3969C65.7667 13.2245 65.1106 13.009 64.4544 12.7503C63.7983 12.4917 63.2371 12.0865 62.7709 11.5348C62.322 10.9658 62.0975 10.2589 62.0975 9.41404C62.0975 8.13814 62.5637 7.13811 63.4961 6.41396C64.4458 5.67256 65.62 5.30186 67.0186 5.30186C68.0719 5.30186 69.0302 5.54324 69.8935 6.02602C70.7569 6.49154 71.4389 7.16398 71.9396 8.04331L69.0906 9.59507C68.6762 8.71574 67.9855 8.27607 67.0186 8.27607C66.5869 8.27607 66.2243 8.37091 65.9308 8.56057C65.6545 8.75023 65.5164 9.00885 65.5164 9.33645ZM80.598 8.87092H77.6713V14.2504C77.6713 14.6987 77.7835 15.0262 78.008 15.2332C78.2325 15.4401 78.5605 15.5607 78.9922 15.5952C79.4239 15.6125 79.9591 15.6039 80.598 15.5694V18.5953C78.3015 18.8539 76.6784 18.6384 75.7288 17.9487C74.7964 17.2591 74.3301 16.0263 74.3301 14.2504V8.87092H72.0768V5.66394H74.3301V3.0518L77.6713 2.04316V5.66394H80.598V8.87092ZM90.9265 5.66394H94.2676V18.5953H90.9265V17.147C90.115 18.3539 88.8286 18.9574 87.0674 18.9574C85.6515 18.9574 84.4773 18.4832 83.5449 17.5349C82.6298 16.5866 82.1722 15.2763 82.1722 13.6038V5.66394H85.5133V13.19C85.5133 14.0521 85.7464 14.7159 86.2127 15.1814C86.6789 15.6297 87.3005 15.8539 88.0775 15.8539C88.9408 15.8539 89.6315 15.5866 90.1495 15.0521C90.6675 14.5176 90.9265 13.7159 90.9265 12.6469V5.66394ZM106.367 0.491389H109.708V18.5953H106.367V17.0694C105.383 18.3281 103.984 18.9574 102.171 18.9574C100.427 18.9574 98.9336 18.3022 97.6903 16.9918C96.4644 15.6642 95.8514 14.0435 95.8514 12.1296C95.8514 10.2158 96.4644 8.60367 97.6903 7.29329C98.9336 5.96567 100.427 5.30186 102.171 5.30186C103.984 5.30186 105.383 5.93119 106.367 7.18984V0.491389ZM100.203 14.7676C100.893 15.4401 101.757 15.7763 102.793 15.7763C103.829 15.7763 104.683 15.4401 105.357 14.7676C106.03 14.0779 106.367 13.1986 106.367 12.1296C106.367 11.0606 106.03 10.1899 105.357 9.51749C104.683 8.82782 103.829 8.48298 102.793 8.48298C101.757 8.48298 100.893 8.82782 100.203 9.51749C99.5293 10.1899 99.1926 11.0606 99.1926 12.1296C99.1926 13.1986 99.5293 14.0779 100.203 14.7676ZM113.644 4.11217C113.092 4.11217 112.608 3.9139 112.194 3.51733C111.797 3.10353 111.598 2.62076 111.598 2.06902C111.598 1.51728 111.797 1.03451 112.194 0.620705C112.608 0.206901 113.092 0 113.644 0C114.214 0 114.698 0.206901 115.095 0.620705C115.509 1.03451 115.716 1.51728 115.716 2.06902C115.716 2.62076 115.509 3.10353 115.095 3.51733C114.698 3.9139 114.214 4.11217 113.644 4.11217ZM111.987 18.5953V5.66394H115.328V18.5953H111.987ZM128.642 16.9918C127.313 18.3022 125.69 18.9574 123.773 18.9574C121.856 18.9574 120.233 18.3022 118.904 16.9918C117.591 15.6642 116.935 14.0435 116.935 12.1296C116.935 10.2158 117.591 8.60367 118.904 7.29329C120.233 5.96567 121.856 5.30186 123.773 5.30186C125.69 5.30186 127.313 5.96567 128.642 7.29329C129.972 8.60367 130.637 10.2158 130.637 12.1296C130.637 14.0435 129.972 15.6642 128.642 16.9918ZM121.261 14.69C121.934 15.3625 122.771 15.6987 123.773 15.6987C124.774 15.6987 125.612 15.3625 126.285 14.69C126.959 14.0176 127.295 13.1641 127.295 12.1296C127.295 11.0951 126.959 10.2416 126.285 9.56922C125.612 8.89678 124.774 8.56057 123.773 8.56057C122.771 8.56057 121.934 8.89678 121.261 9.56922C120.604 10.2416 120.276 11.0951 120.276 12.1296C120.276 13.1641 120.604 14.0176 121.261 14.69Z" fill="white"/>
<path d="M140.221 18.222C139.701 18.7407 139.077 19.0003 138.35 19.0003C137.623 19.0003 136.999 18.7407 136.48 18.222C135.96 17.7033 135.7 17.0807 135.7 16.3542C135.7 15.6276 135.96 15.005 136.48 14.4863C136.999 13.9676 137.623 13.708 138.35 13.708C139.077 13.708 139.701 13.9676 140.221 14.4863C140.74 15.005 141 15.6276 141 16.3542C141 17.0807 140.74 17.7033 140.221 18.222Z" fill="#FF5D2A"/>
</svg>
