<svg width="404" height="326" viewBox="0 0 404 326" fill="none" xmlns="http://www.w3.org/2000/svg">
<g clip-path="url(#clip0_36_100)">
<path d="M141.364 109.495C144.258 105.689 151.152 97.5423 155.349 95.4357H156.205L158.827 94.557C159.701 93.6783 161.629 91.9209 162.3 91.9209C163.174 91.9209 173.669 104.223 175.417 106.859C177.165 109.495 176.291 110.35 176.291 112.131C176.291 113.539 175.133 113.295 174.554 113.01L171.081 137.619L173.703 146.406L211.287 130.584L215.658 139.377C205.464 144.649 183.822 155.898 178.948 158.708C174.074 161.519 169.912 162.2 168.459 162.2L167.579 169.23H129.995C124.398 169.23 121.255 167.484 120.381 166.593C119.829 151.538 123.461 136.626 130.869 123.531C133.671 118.637 139.031 112.131 141.364 109.495Z" fill="white"/>
<path d="M166.943 119.161C167.637 124.043 173.489 146.86 173.489 146.86L225.185 124.747L230.736 131.73C230.736 131.73 196.759 150.55 175.955 160.309C155.152 170.067 151.684 144.981 147.528 117.107" stroke="#141414" stroke-width="1.56" stroke-miterlimit="10"/>
<path d="M176.65 108.023L176.071 113.126C176.054 113.242 176.008 113.352 175.938 113.446C175.868 113.541 175.774 113.616 175.666 113.661C175.558 113.715 175.437 113.733 175.318 113.714C175.201 113.7 175.089 113.656 174.994 113.586L174.687 113.353L174.832 111.404C174.957 109.752 174.633 108.097 173.895 106.616C173.157 105.135 172.032 103.883 170.641 102.995L159.296 95.744C158.883 95.489 158.437 95.2931 157.971 95.1621L160.541 92.3106C160.73 92.1034 160.961 91.9389 161.218 91.8276C161.477 91.7167 161.758 91.665 162.04 91.6763C162.319 91.6833 162.594 91.7507 162.844 91.8742C163.096 91.9984 163.318 92.1773 163.493 92.3979L176.65 108.023Z" stroke="#141414" stroke-width="1.56" stroke-miterlimit="10"/>
<path d="M157.994 95.1215C158.461 95.2525 158.907 95.4484 159.319 95.7034L170.676 102.966C172.067 103.854 173.192 105.106 173.93 106.587C174.668 108.068 174.992 109.723 174.867 111.375L174.722 113.324" stroke="#141414" stroke-width="1.56" stroke-miterlimit="10"/>
<path d="M174.728 113.341L171.51 138.516" stroke="#141414" stroke-width="1.56" stroke-miterlimit="10"/>
<path d="M120.537 167.589C117.498 132.015 142.637 105.806 153.34 96.198C153.96 95.6306 154.713 95.2302 155.528 95.0341C156.342 94.8428 157.191 94.8648 157.994 95.0981" stroke="#141414" stroke-width="1.56" stroke-miterlimit="10"/>
<path d="M188.62 74.1896C188.759 69.1152 183.37 60.8053 172.227 63.8663C161.085 66.9272 156.634 76.4649 158.712 81.5043C160.79 86.5438 165.426 89.1101 170.086 86.3925C170.086 86.3925 167.481 81.3647 171.174 78.874C174.867 76.3834 175.382 81.6731 174.78 83.6691C174.178 85.6651 178.051 82.5053 179.752 79.3978C180.683 79.4086 181.606 79.2313 182.467 78.8765C183.328 78.5216 184.11 77.9963 184.765 77.3319C185.893 76.1035 187.192 75.0452 188.62 74.1896Z" fill="#141414"/>
<path d="M171.18 63.4705C171.685 63.1626 172.085 62.7065 172.325 62.1634C172.565 61.6204 172.634 61.0165 172.522 60.4329C171.619 55.7076 166.474 48.7362 158.266 51.9251C148.657 55.6495 153.184 64.3957 157.571 64.3201C160.315 64.3591 162.939 65.4571 164.899 67.3868L171.18 63.4705Z" fill="#141414"/>
<path d="M172.25 91.6532C172.25 91.6532 180.713 99.4509 182.49 98.4209C184.267 97.3909 186.629 90.0296 186.629 90.0296C187.597 90.1647 188.582 90.0973 189.523 89.8318C190.426 89.3662 187.931 85.6593 188.099 82.7962C188.267 79.9332 189.089 76.1681 188.192 74.4165" stroke="#141414" stroke-width="1.56" stroke-miterlimit="10"/>
<path d="M162.781 91.979C164.643 90.2347 166.319 88.3 167.782 86.2063" stroke="#141414" stroke-width="1.56" stroke-miterlimit="10"/>
<path d="M177.275 95.8546C177.275 95.8546 172.413 101.563 172.453 103.775" stroke="#141414" stroke-width="1.56" stroke-miterlimit="10"/>
<path d="M188.215 74.4165C187.734 76.5987 183.932 81.097 180.418 80.713" stroke="#141414" stroke-width="1.56" stroke-miterlimit="10"/>
<path d="M165.744 68.3819C164.627 67.2937 161.328 64.7566 158.468 65.3443C155.609 65.9321 154.938 64.582 154.938 64.582" stroke="#141414" stroke-width="1.56" stroke-miterlimit="10"/>
<path d="M211.27 130.694L215.964 139.755" stroke="#141414" stroke-width="1.56" stroke-miterlimit="10"/>
<path d="M225.88 125.44C225.88 125.44 227.391 121.762 228.305 120.965C228.884 120.447 230.563 121.035 231.674 121.547C231.777 121.589 231.865 121.659 231.929 121.75C231.993 121.843 232.031 121.952 232.039 122.064C232.05 122.178 232.029 122.293 231.979 122.396C231.929 122.499 231.852 122.585 231.755 122.646L230.019 123.77C230.019 123.77 229.972 125.585 231.281 125.655C232.184 125.655 237.833 122.868 240.889 121.279C240.959 121.256 241.034 121.256 241.103 121.279C241.175 121.302 241.238 121.347 241.283 121.407C241.322 121.469 241.341 121.543 241.335 121.616C241.33 121.692 241.299 121.764 241.248 121.82C238.221 124.666 234.881 128.803 230.036 131.067" stroke="#141414" stroke-width="1.56" stroke-miterlimit="10"/>
<path d="M230.024 123.729L247.1 115.617C247.181 115.583 247.267 115.563 247.355 115.559C247.44 115.559 247.525 115.577 247.604 115.611C247.682 115.645 247.753 115.694 247.812 115.756C247.87 115.82 247.914 115.895 247.939 115.978L248.211 116.804C248.275 116.973 248.275 117.159 248.211 117.328C248.144 117.496 248.016 117.633 247.853 117.712L231.066 125.795L230.024 123.729Z" fill="#141414"/>
<path d="M147.187 117.601C147.187 117.601 144.223 166.966 167.637 166.791L168.089 162.433C168.089 162.433 160.263 163.015 156.072 154.594C151.881 146.174 147.187 117.601 147.187 117.601Z" fill="#141414"/>
<path d="M167.25 119.12L172.071 133.79L171.492 138.242L168.436 126.301L167.25 119.12Z" fill="#141414"/>
<path d="M164.743 90.0295L172.442 102.669L162.914 91.8568L164.743 90.0295Z" fill="#141414"/>
<path d="M172.355 167.775L224.682 320.239H215.027L135.656 174.368L172.355 167.775Z" fill="#FF5D2A"/>
<path d="M404.006 325.296H-0.0231934" stroke="#141414" stroke-width="1.18" stroke-miterlimit="10"/>
<path d="M217.249 325.156L215.333 320.25H225.029C228.907 320.25 231.061 321.81 234.042 323.661C234.161 323.721 234.255 323.821 234.309 323.944C234.364 324.067 234.374 324.205 234.338 324.334C234.303 324.464 234.224 324.577 234.115 324.655C234.006 324.732 233.874 324.77 233.741 324.76L217.249 325.156Z" fill="#141414"/>
<path d="M166.844 284.608L168.685 279.842L175.689 279.929C179.567 279.929 181.72 281.489 184.701 283.345C184.821 283.406 184.917 283.506 184.971 283.63C185.025 283.753 185.035 283.892 184.998 284.022C184.962 284.152 184.882 284.265 184.772 284.342C184.662 284.419 184.528 284.456 184.395 284.445L166.844 284.608Z" fill="#141414"/>
<path d="M182.577 195.212C170.381 198.384 152.877 199.74 138.719 195.445C127.003 191.884 122.418 180.397 120.248 166.931C125.168 170.376 139.581 167.903 161.866 167.42L211.409 168.002C212.995 168.021 214.551 168.427 215.946 169.185C217.341 169.943 218.532 171.03 219.417 172.353C220.302 173.676 220.854 175.194 221.026 176.779C221.198 178.364 220.984 179.966 220.404 181.45L177.622 279.993L168.662 279.842L194.484 190.516C191.879 192.21 187.688 193.868 182.554 195.212C170.358 198.384 152.854 199.74 138.695 195.445" fill="#FF5D2A"/>
<path d="M184.782 197.779H125.017C123.029 197.779 121.417 199.399 121.417 201.398V202.696C121.417 204.695 123.029 206.316 125.017 206.316H184.782C186.771 206.316 188.383 204.695 188.383 202.696V201.398C188.383 199.399 186.771 197.779 184.782 197.779Z" fill="white" stroke="#141414" stroke-width="1.29" stroke-miterlimit="10"/>
<path d="M132.114 206.444L113.846 325.081" stroke="#141414" stroke-width="1.29" stroke-miterlimit="10"/>
<path d="M179.642 206.444L197.91 325.081" stroke="#141414" stroke-width="1.29" stroke-miterlimit="10"/>
<path d="M155.881 206.636V325.081" stroke="#141414" stroke-width="1.29" stroke-miterlimit="10"/>
<path d="M120.879 284.293L190.71 284.742" stroke="#141414" stroke-width="1.29" stroke-miterlimit="10"/>
<path d="M168.083 162.438L167.573 167.693" stroke="#141414" stroke-width="1.56" stroke-miterlimit="10"/>
<path d="M39.8066 286.452H78.7856L74.9074 325.081H42.7934L39.8066 286.452Z" stroke="#141414" stroke-miterlimit="10"/>
<path d="M14.8298 325.994C15.6228 325.994 42.6835 316.683 42.6835 316.683L43.2623 324.83L14.8298 325.994Z" fill="#141414"/>
<path d="M42.012 238.892L58.3583 252.794C58.3583 252.794 58.1095 279.725 58.1327 281.535" stroke="#141414" stroke-miterlimit="10"/>
<path d="M54.2314 249.285L58.6132 219.892L83.4338 205.14" stroke="#141414" stroke-miterlimit="10" stroke-linecap="round"/>
<path d="M68.8297 213.822L48.2172 174.222L27.0549 162.596" stroke="#141414" stroke-miterlimit="10" stroke-linecap="round"/>
<path d="M50.0752 239.136C49.4963 239.84 47.9798 239.549 47.9798 239.549C47.9798 239.549 47.343 238.112 47.8987 237.408C48.0007 237.233 48.1389 237.082 48.304 236.965C48.4691 236.849 48.6571 236.769 48.8554 236.732C49.0537 236.695 49.2577 236.702 49.4534 236.751C49.649 236.8 49.8319 236.891 49.9895 237.017C50.1472 237.144 50.276 237.303 50.3671 237.484C50.4582 237.665 50.5096 237.863 50.5178 238.066C50.5259 238.268 50.4905 238.47 50.4142 238.658C50.3378 238.846 50.2222 239.015 50.0752 239.154V239.136Z" fill="#FF5D2A"/>
<path d="M47.8701 242.284C47.2912 241.592 47.8701 240.137 47.8701 240.137C47.8701 240.137 49.3981 239.811 49.9712 240.504C50.1217 240.638 50.2416 240.804 50.3225 240.99C50.4034 241.176 50.4435 241.377 50.4401 241.579C50.4366 241.782 50.3899 241.981 50.3027 242.164C50.2156 242.347 50.0901 242.508 49.9351 242.638C49.7801 242.768 49.5991 242.862 49.4045 242.915C49.2099 242.968 49.0062 242.978 48.8074 242.944C48.6086 242.911 48.4194 242.834 48.2526 242.72C48.0858 242.606 47.9455 242.458 47.8411 242.284H47.8701Z" fill="#FF5D2A"/>
<path d="M45.4734 240.381C46.2895 240.754 47.5225 239.8 47.5225 239.8C47.5225 239.8 47.4298 238.228 46.6137 237.862C46.4448 237.754 46.2553 237.685 46.0574 237.657C45.8596 237.63 45.6582 237.645 45.4667 237.702C45.2753 237.759 45.0981 237.857 44.9472 237.988C44.7964 238.12 44.6752 238.282 44.592 238.465C44.5087 238.647 44.4652 238.846 44.4644 239.046C44.4636 239.247 44.5056 239.446 44.5875 239.629C44.6693 239.812 44.7891 239.976 44.9389 240.108C45.0887 240.241 45.265 240.34 45.456 240.399L45.4734 240.381Z" fill="#FF5D2A"/>
<path d="M39.4595 234.428C40.1251 235.01 39.7489 236.552 39.7489 236.552C39.7489 236.552 38.2845 237.134 37.613 236.512C37.4405 236.402 37.2938 236.256 37.1831 236.083C37.0725 235.911 37.0005 235.716 36.9721 235.513C36.9438 235.31 36.9597 235.103 37.0189 234.907C37.0781 234.71 37.1792 234.529 37.315 234.376C37.4508 234.223 37.618 234.101 37.8052 234.019C37.9925 233.938 38.1953 233.898 38.3993 233.903C38.6034 233.908 38.8038 233.958 38.9869 234.048C39.17 234.139 39.3313 234.269 39.4595 234.428Z" fill="#FF5D2A"/>
<path d="M42.481 236.808C41.7632 237.344 40.3509 236.657 40.3509 236.657C40.3509 236.657 40.1135 235.103 40.8312 234.568C40.9739 234.426 41.1454 234.316 41.334 234.246C41.5226 234.177 41.7238 234.149 41.9242 234.164C42.1245 234.179 42.3191 234.238 42.4949 234.336C42.6708 234.433 42.8237 234.568 42.9432 234.73C43.0627 234.893 43.1462 235.079 43.1878 235.277C43.2294 235.474 43.2283 235.678 43.1844 235.876C43.1406 236.073 43.055 236.258 42.9336 236.419C42.8122 236.58 42.6579 236.713 42.481 236.808Z" fill="#FF5D2A"/>
<path d="M40.4377 239.136C40.8545 238.333 39.9572 237.041 39.9572 237.041C39.9572 237.041 38.3944 237.041 37.9776 237.844C37.8549 238.008 37.7691 238.197 37.7262 238.398C37.6834 238.598 37.6844 238.806 37.7293 239.006C37.7743 239.206 37.8621 239.394 37.9865 239.557C38.111 239.72 38.2693 239.853 38.4502 239.948C38.6311 240.043 38.8305 240.097 39.0344 240.107C39.2383 240.117 39.4418 240.082 39.6309 240.005C39.82 239.928 39.9902 239.81 40.1295 239.66C40.2688 239.51 40.374 239.331 40.4377 239.136Z" fill="#FF5D2A"/>
<path d="M45.1088 248.639C45.624 247.9 47.1751 248.104 47.1751 248.104C47.1751 248.104 47.893 249.5 47.3836 250.239C47.2951 250.424 47.1677 250.587 47.0104 250.717C46.853 250.848 46.6693 250.942 46.4721 250.994C46.2748 251.046 46.0688 251.054 45.8681 251.018C45.6674 250.981 45.4769 250.902 45.3099 250.784C45.1428 250.667 45.0032 250.514 44.9006 250.337C44.7981 250.16 44.7351 249.962 44.7159 249.758C44.6968 249.554 44.722 249.349 44.7898 249.155C44.8577 248.962 44.9665 248.786 45.1088 248.639Z" fill="#FF5D2A"/>
<path d="M47.129 245.339C47.7426 245.997 47.2274 247.487 47.2274 247.487C47.2274 247.487 45.7167 247.906 45.1031 247.248C44.9416 247.123 44.809 246.964 44.7146 246.783C44.6202 246.601 44.5662 246.401 44.5563 246.196C44.5465 245.991 44.581 245.787 44.6575 245.597C44.734 245.407 44.8508 245.236 44.9995 245.096C45.1482 244.956 45.3255 244.85 45.519 244.785C45.7125 244.721 45.9176 244.7 46.1202 244.723C46.3227 244.746 46.5179 244.813 46.6921 244.919C46.8662 245.026 47.0154 245.169 47.129 245.339Z" fill="#FF5D2A"/>
<path d="M49.6294 247.097C48.7959 246.777 47.6208 247.818 47.6208 247.818C47.6208 247.818 47.8003 249.384 48.6396 249.704C48.8159 249.807 49.0125 249.871 49.2156 249.89C49.4188 249.909 49.6238 249.884 49.8162 249.816C50.0087 249.748 50.1841 249.638 50.3302 249.495C50.4763 249.352 50.5897 249.178 50.6624 248.987C50.7352 248.795 50.7657 248.59 50.7516 248.385C50.7376 248.18 50.6793 247.981 50.581 247.801C50.4828 247.622 50.3467 247.465 50.1824 247.344C50.0181 247.222 49.8294 247.138 49.6294 247.097Z" fill="#FF5D2A"/>
<path d="M62.1267 241.83C61.2353 241.726 60.6738 240.259 60.6738 240.259C60.6738 240.259 61.5595 238.956 62.4451 239.06C62.6494 239.05 62.8536 239.084 63.0435 239.16C63.2333 239.237 63.4043 239.354 63.5444 239.504C63.6845 239.654 63.7905 239.833 63.8548 240.028C63.919 240.224 63.9401 240.431 63.9167 240.635C63.8932 240.839 63.8257 241.036 63.7188 241.211C63.6119 241.387 63.4682 241.537 63.2978 241.65C63.1274 241.764 62.9342 241.839 62.732 241.87C62.5297 241.901 62.3232 241.888 62.1267 241.83Z" fill="#FF5D2A"/>
<path d="M58.2832 241.609C58.5668 240.754 60.1123 240.509 60.1123 240.509C60.1123 240.509 61.1948 241.673 60.9111 242.494C60.8759 242.693 60.7983 242.882 60.6838 243.049C60.5692 243.215 60.4203 243.355 60.2472 243.458C60.0741 243.561 59.8809 243.626 59.6807 243.648C59.4805 243.669 59.2781 243.647 59.0872 243.583C58.8963 243.518 58.7214 243.414 58.5745 243.275C58.4275 243.137 58.3119 242.968 58.2356 242.781C58.1593 242.594 58.1241 242.392 58.1323 242.19C58.1405 241.988 58.192 241.79 58.2832 241.609Z" fill="#FF5D2A"/>
<path d="M58.6305 238.554C58.7462 239.45 60.2165 239.992 60.2165 239.992C60.2165 239.992 61.4957 239.09 61.3742 238.193C61.3769 237.991 61.3364 237.791 61.2555 237.606C61.1745 237.422 61.0549 237.257 60.9049 237.122C60.7548 236.988 60.5779 236.888 60.3859 236.828C60.194 236.769 59.9914 236.752 59.7923 236.778C59.5931 236.804 59.4017 236.873 59.2314 236.98C59.061 237.087 58.9156 237.229 58.8049 237.398C58.6941 237.566 58.6207 237.757 58.5896 237.956C58.5586 238.156 58.5705 238.36 58.6247 238.554H58.6305Z" fill="#FF5D2A"/>
<path d="M63.3712 225.752C62.4855 225.647 61.9241 224.181 61.9241 224.181C61.9241 224.181 62.8038 222.877 63.6952 222.982C63.8994 222.972 64.1034 223.007 64.2928 223.084C64.4823 223.161 64.6528 223.279 64.7924 223.429C64.932 223.579 65.0373 223.758 65.101 223.953C65.1648 224.148 65.1854 224.355 65.1615 224.559C65.1376 224.764 65.0698 224.96 64.9627 225.135C64.8556 225.31 64.7118 225.46 64.5414 225.573C64.371 225.687 64.178 225.761 63.9759 225.792C63.7737 225.823 63.5674 225.809 63.3712 225.752Z" fill="#FF5D2A"/>
<path d="M59.5391 225.542C59.8228 224.693 61.3682 224.443 61.3682 224.443C61.3682 224.443 62.4565 225.606 62.1671 226.433C62.1307 226.631 62.0522 226.819 61.937 226.985C61.8219 227.15 61.6727 227.289 61.4996 227.391C61.3266 227.493 61.1336 227.557 60.9339 227.578C60.7342 227.599 60.5324 227.576 60.3421 227.512C60.1518 227.447 59.9777 227.342 59.8312 227.204C59.6848 227.066 59.5695 226.898 59.4933 226.711C59.4172 226.525 59.3819 226.324 59.3898 226.122C59.3976 225.92 59.4486 225.723 59.5391 225.542Z" fill="#FF5D2A"/>
<path d="M59.875 222.499C59.9907 223.389 61.461 223.93 61.461 223.93C61.461 223.93 62.746 223.028 62.6187 222.132C62.6206 221.931 62.5794 221.731 62.4978 221.546C62.4163 221.362 62.2964 221.198 62.1461 221.064C61.9958 220.93 61.8187 220.831 61.6267 220.772C61.4348 220.713 61.2327 220.696 61.0338 220.723C60.8349 220.749 60.6439 220.818 60.4739 220.925C60.3039 221.033 60.1588 221.175 60.0484 221.344C59.938 221.512 59.8648 221.702 59.8339 221.902C59.8029 222.101 59.815 222.305 59.8692 222.499H59.875Z" fill="#FF5D2A"/>
<path d="M64.228 253.684C63.3944 254.016 62.2136 252.986 62.2136 252.986C62.2136 252.986 62.3815 251.421 63.215 251.089C63.3896 250.989 63.5834 250.928 63.7834 250.911C63.9834 250.893 64.1847 250.919 64.3739 250.986C64.5632 251.053 64.7358 251.161 64.8801 251.301C65.0245 251.441 65.1371 251.611 65.2104 251.799C65.2837 251.987 65.316 252.189 65.3051 252.39C65.2942 252.592 65.2404 252.788 65.1472 252.967C65.0541 253.146 64.9237 253.302 64.7651 253.426C64.6065 253.55 64.4234 253.638 64.228 253.684Z" fill="#FF5D2A"/>
<path d="M60.7375 255.284C60.587 254.394 61.8314 253.446 61.8314 253.446C61.8314 253.446 63.3191 253.929 63.4696 254.819C63.5321 255.011 63.5525 255.215 63.5296 255.416C63.5067 255.617 63.4409 255.811 63.3367 255.984C63.2326 256.158 63.0925 256.306 62.9261 256.42C62.7596 256.534 62.5705 256.611 62.372 256.644C62.1734 256.678 61.97 256.669 61.7755 256.616C61.5809 256.564 61.3999 256.47 61.2448 256.341C61.0897 256.212 60.9641 256.051 60.8765 255.868C60.789 255.686 60.7416 255.487 60.7375 255.284Z" fill="#FF5D2A"/>
<path d="M59.6146 252.433C60.1355 253.166 61.6868 252.945 61.6868 252.945C61.6868 252.945 62.3931 251.543 61.8721 250.809C61.782 250.625 61.6531 250.463 61.4944 250.334C61.3357 250.205 61.1509 250.113 60.953 250.063C60.7551 250.013 60.5487 250.007 60.3481 250.045C60.1476 250.083 59.9578 250.165 59.7918 250.284C59.6258 250.403 59.4876 250.558 59.3869 250.736C59.2862 250.914 59.2253 251.113 59.2084 251.317C59.1916 251.522 59.2191 251.727 59.2893 251.92C59.3594 252.113 59.4704 252.288 59.6146 252.433Z" fill="#FF5D2A"/>
<path d="M53.1721 266.12C54.0577 266.26 54.567 267.749 54.567 267.749C54.567 267.749 53.641 269.012 52.7553 268.878C52.5512 268.881 52.3488 268.839 52.1624 268.755C51.9759 268.672 51.8098 268.548 51.6757 268.393C51.5415 268.239 51.4424 268.056 51.3854 267.859C51.3284 267.662 51.3146 267.455 51.3453 267.252C51.3759 267.049 51.4502 266.855 51.5629 266.684C51.6756 266.513 51.824 266.368 51.9979 266.261C52.1717 266.153 52.3667 266.085 52.5695 266.06C52.7723 266.036 52.9779 266.056 53.1721 266.12Z" fill="#FF5D2A"/>
<path d="M57.004 266.487C56.6857 267.33 55.1343 267.523 55.1343 267.523C55.1343 267.523 54.0924 266.359 54.4049 265.509C54.4441 265.307 54.5266 265.117 54.6464 264.951C54.7663 264.784 54.9207 264.646 55.0989 264.546C55.2772 264.446 55.4751 264.386 55.6788 264.37C55.8824 264.355 56.0871 264.384 56.2784 264.456C56.4697 264.528 56.6431 264.641 56.7866 264.787C56.93 264.933 57.0401 265.109 57.1092 265.302C57.1782 265.496 57.2047 265.702 57.1865 265.906C57.1683 266.111 57.1061 266.309 57.004 266.487Z" fill="#FF5D2A"/>
<path d="M56.5411 269.518C56.46 268.622 55.0128 268.023 55.0128 268.023C55.0128 268.023 53.6989 268.878 53.78 269.769C53.7696 269.97 53.8025 270.172 53.8765 270.36C53.9505 270.547 54.0637 270.717 54.2086 270.857C54.3535 270.997 54.5266 271.104 54.7162 271.17C54.9058 271.237 55.1074 271.262 55.3075 271.243C55.5075 271.225 55.7013 271.163 55.8756 271.063C56.0499 270.962 56.2006 270.825 56.3176 270.661C56.4346 270.497 56.5151 270.31 56.5536 270.111C56.5922 269.913 56.5879 269.709 56.5411 269.513V269.518Z" fill="#FF5D2A"/>
<path d="M52.7378 225.007C53.4209 225.589 53.0852 227.125 53.0852 227.125C53.0852 227.125 51.638 227.707 50.9492 227.125C50.7744 227.02 50.6245 226.878 50.5097 226.709C50.3949 226.539 50.3181 226.347 50.2844 226.145C50.2508 225.943 50.2612 225.736 50.315 225.539C50.3687 225.341 50.4645 225.158 50.5958 225.001C50.727 224.844 50.8904 224.718 51.0748 224.631C51.2593 224.544 51.4604 224.499 51.6641 224.498C51.8678 224.497 52.0693 224.54 52.2547 224.625C52.4401 224.71 52.605 224.834 52.7378 224.989V225.007Z" fill="#FF5D2A"/>
<path d="M55.8232 227.323C55.117 227.905 53.693 227.23 53.693 227.23C53.693 227.23 53.4094 225.682 54.1155 225.129C54.2541 224.982 54.4227 224.867 54.6096 224.792C54.7965 224.716 54.9973 224.682 55.1985 224.691C55.3997 224.701 55.5965 224.754 55.7755 224.847C55.9544 224.94 56.1113 225.071 56.2355 225.23C56.3596 225.39 56.448 225.574 56.4948 225.771C56.5415 225.968 56.5455 226.173 56.5064 226.372C56.4672 226.57 56.3858 226.758 56.268 226.922C56.1501 227.086 55.9984 227.223 55.8232 227.323Z" fill="#FF5D2A"/>
<path d="M53.8608 229.674C54.2544 228.865 53.3283 227.597 53.3283 227.597C53.3283 227.597 51.7596 227.643 51.366 228.452C51.2477 228.619 51.1671 228.811 51.1297 229.012C51.0923 229.214 51.0992 229.422 51.1496 229.621C51.2001 229.82 51.293 230.005 51.4219 230.164C51.5509 230.323 51.7129 230.452 51.8965 230.542C52.0801 230.632 52.2809 230.681 52.4851 230.685C52.6892 230.689 52.8918 230.648 53.0788 230.566C53.2657 230.483 53.4325 230.36 53.5676 230.206C53.7026 230.052 53.8026 229.871 53.8608 229.674Z" fill="#FF5D2A"/>
<path d="M23.2866 156.951C23.9754 157.533 23.6338 159.069 23.6338 159.069C23.6338 159.069 22.1868 159.651 21.5037 159.069C21.3333 158.963 21.1875 158.82 21.0764 158.652C20.9653 158.484 20.8914 158.294 20.8598 158.095C20.8281 157.896 20.8396 157.692 20.8931 157.497C20.9466 157.303 21.0411 157.122 21.1701 156.968C21.2991 156.813 21.4597 156.688 21.641 156.601C21.8222 156.515 22.0198 156.468 22.2205 156.465C22.4212 156.462 22.6202 156.502 22.8041 156.583C22.9881 156.663 23.1527 156.783 23.2866 156.933V156.951Z" fill="#FF5D2A"/>
<path d="M26.3777 159.267C25.6716 159.849 24.2419 159.174 24.2419 159.174C24.2419 159.174 23.964 157.626 24.6702 157.067C24.8085 156.916 24.9778 156.797 25.1664 156.719C25.3549 156.64 25.5582 156.604 25.7622 156.612C25.9661 156.621 26.1659 156.674 26.3475 156.767C26.5291 156.861 26.6881 156.993 26.8137 157.155C26.9393 157.317 27.0284 157.504 27.0747 157.704C27.1211 157.904 27.1236 158.112 27.0821 158.312C27.0406 158.513 26.9561 158.703 26.8345 158.868C26.7129 159.033 26.557 159.169 26.3777 159.267Z" fill="#FF5D2A"/>
<path d="M24.4098 161.618C24.8034 160.803 23.8771 159.54 23.8771 159.54C23.8771 159.54 22.3143 159.581 21.9207 160.39C21.8072 160.557 21.7306 160.746 21.6963 160.945C21.662 161.144 21.6708 161.348 21.7219 161.544C21.773 161.739 21.8652 161.921 21.9925 162.077C22.1198 162.234 22.279 162.361 22.4594 162.45C22.6398 162.539 22.8372 162.588 23.0381 162.593C23.239 162.599 23.4388 162.561 23.6238 162.482C23.8088 162.403 23.9747 162.285 24.1103 162.136C24.2459 161.987 24.3481 161.81 24.4098 161.618Z" fill="#FF5D2A"/>
<path d="M27.7033 169.387C28.1779 168.624 29.7408 168.741 29.7408 168.741C29.7408 168.741 30.5338 170.097 30.0592 170.859C29.9816 171.049 29.8637 171.22 29.7137 171.36C29.5637 171.5 29.3851 171.605 29.1905 171.668C28.9959 171.731 28.79 171.751 28.587 171.726C28.3839 171.701 28.1887 171.632 28.015 171.524C27.8413 171.415 27.6933 171.27 27.5812 171.098C27.4691 170.926 27.3956 170.731 27.366 170.528C27.3363 170.324 27.3511 170.117 27.4093 169.92C27.4676 169.723 27.5679 169.541 27.7033 169.387Z" fill="#FF5D2A"/>
<path d="M29.5324 165.988C30.1807 166.611 29.7466 168.118 29.7466 168.118C29.7466 168.118 28.259 168.624 27.6107 167.996C27.4469 167.878 27.31 167.727 27.2097 167.551C27.1093 167.376 27.0478 167.181 27.0292 166.979C27.0106 166.778 27.0353 166.575 27.1018 166.384C27.1684 166.193 27.275 166.019 27.4146 165.873C27.5541 165.727 27.7233 165.613 27.9106 165.539C28.0979 165.465 28.2988 165.432 28.4998 165.443C28.7007 165.454 28.897 165.508 29.0752 165.602C29.2534 165.697 29.4093 165.828 29.5324 165.988Z" fill="#FF5D2A"/>
<path d="M32.1255 167.606C31.2746 167.327 30.1575 168.432 30.1575 168.432C30.1575 168.432 30.4237 169.986 31.2746 170.26C31.455 170.348 31.6522 170.397 31.8529 170.402C32.0535 170.407 32.2531 170.369 32.4378 170.29C32.6225 170.211 32.7881 170.093 32.9235 169.944C33.0589 169.795 33.1608 169.618 33.2224 169.426C33.284 169.234 33.3038 169.031 33.2805 168.83C33.2571 168.63 33.1913 168.437 33.0873 168.264C32.9833 168.092 32.8435 167.944 32.6776 167.83C32.5117 167.716 32.3233 167.64 32.1255 167.606Z" fill="#FF5D2A"/>
<path d="M42.2264 165.045C41.8155 165.843 40.2467 165.849 40.2467 165.849C40.2467 165.849 39.3496 164.562 39.7606 163.759C39.8246 163.565 39.9297 163.387 40.0688 163.238C40.2079 163.089 40.3776 162.971 40.5661 162.894C40.7546 162.817 40.9574 162.782 41.1606 162.792C41.3639 162.801 41.5628 162.855 41.7434 162.949C41.924 163.043 42.0822 163.176 42.2069 163.337C42.3317 163.499 42.42 163.686 42.466 163.885C42.5119 164.085 42.5142 164.292 42.4729 164.492C42.4315 164.692 42.3475 164.881 42.2264 165.045Z" fill="#FF5D2A"/>
<path d="M40.6575 168.584C39.9629 168.002 40.2813 166.471 40.2813 166.471C40.2813 166.471 41.7226 165.854 42.4114 166.425C42.5893 166.525 42.7433 166.663 42.8625 166.829C42.9818 166.995 43.0634 167.186 43.1019 167.387C43.1404 167.588 43.1347 167.796 43.0852 167.995C43.0358 168.193 42.9437 168.379 42.8155 168.538C42.6873 168.698 42.5261 168.827 42.343 168.917C42.16 169.008 41.9595 169.057 41.7557 169.061C41.5519 169.065 41.3495 169.025 41.1629 168.942C40.9762 168.86 40.8096 168.737 40.6749 168.584H40.6575Z" fill="#FF5D2A"/>
<path d="M37.9486 167.175C38.8169 167.379 39.8472 166.192 39.8472 166.192C39.8472 166.192 39.4594 164.667 38.5854 164.446C38.3971 164.368 38.1942 164.332 37.9907 164.34C37.7872 164.349 37.5879 164.401 37.4066 164.495C37.2254 164.588 37.0665 164.72 36.941 164.882C36.8155 165.043 36.7263 165.23 36.6796 165.429C36.6329 165.628 36.6298 165.835 36.6705 166.036C36.7113 166.237 36.7949 166.426 36.9156 166.591C37.0362 166.756 37.1911 166.893 37.3695 166.991C37.5478 167.09 37.7454 167.149 37.9486 167.164V167.175Z" fill="#FF5D2A"/>
<path d="M53.6815 172.709C52.9811 173.291 51.5514 172.64 51.5514 172.64C51.5514 172.64 51.2504 171.092 51.9507 170.533C52.0883 170.387 52.2554 170.272 52.4408 170.196C52.6262 170.12 52.8256 170.085 53.0256 170.094C53.2256 170.102 53.4214 170.153 53.6001 170.244C53.7787 170.335 53.936 170.463 54.0612 170.62C54.1864 170.777 54.2767 170.959 54.326 171.154C54.3753 171.349 54.3826 171.552 54.3472 171.75C54.3118 171.948 54.2345 172.136 54.1207 172.302C54.0069 172.467 53.859 172.606 53.6873 172.709H53.6815Z" fill="#FF5D2A"/>
<path d="M50.8218 175.299C50.4166 174.496 51.3313 173.216 51.3313 173.216C51.3313 173.216 52.8941 173.216 53.2993 174.048C53.4144 174.214 53.4927 174.402 53.5289 174.601C53.5651 174.8 53.5583 175.004 53.509 175.2C53.4597 175.396 53.3691 175.579 53.2433 175.736C53.1175 175.894 52.9594 176.022 52.7798 176.113C52.6002 176.204 52.4033 176.254 52.2025 176.262C52.0016 176.269 51.8015 176.233 51.6157 176.156C51.43 176.079 51.2631 175.962 51.1261 175.814C50.9891 175.666 50.8853 175.491 50.8218 175.299Z" fill="#FF5D2A"/>
<path d="M48.9117 172.907C49.6237 173.454 51.0419 172.785 51.0419 172.785C51.0419 172.785 51.3024 171.231 50.5904 170.69C50.4498 170.545 50.2798 170.433 50.092 170.36C49.9042 170.287 49.703 170.256 49.5021 170.269C49.3013 170.281 49.1054 170.337 48.928 170.432C48.7505 170.527 48.5955 170.66 48.4736 170.821C48.3517 170.982 48.2658 171.168 48.2217 171.365C48.1775 171.563 48.1761 171.767 48.2177 171.965C48.2593 172.163 48.3428 172.35 48.4626 172.512C48.5824 172.675 48.7355 172.81 48.9117 172.907Z" fill="#FF5D2A"/>
<path d="M62.6997 190.313C61.9993 190.895 60.5638 190.243 60.5638 190.243C60.5638 190.243 60.2686 188.695 60.9632 188.136C61.0994 187.983 61.2671 187.862 61.4547 187.781C61.6422 187.7 61.8451 187.661 62.0492 187.666C62.2533 187.672 62.4538 187.722 62.6367 187.813C62.8195 187.905 62.9803 188.035 63.1081 188.195C63.2359 188.355 63.3275 188.541 63.3765 188.741C63.4254 188.94 63.4306 189.147 63.3917 189.349C63.3529 189.55 63.2709 189.741 63.1513 189.907C63.0318 190.074 62.8777 190.212 62.6997 190.313Z" fill="#FF5D2A"/>
<path d="M59.8404 192.902C59.4352 192.099 60.3439 190.819 60.3439 190.819C60.3439 190.819 61.9127 190.819 62.3179 191.651C62.433 191.817 62.5113 192.005 62.5475 192.204C62.5837 192.403 62.5769 192.607 62.5276 192.803C62.4783 192.999 62.3877 193.182 62.2619 193.339C62.1361 193.497 61.978 193.625 61.7984 193.716C61.6188 193.807 61.4218 193.858 61.2209 193.865C61.0201 193.872 60.8201 193.836 60.6343 193.759C60.4486 193.682 60.2815 193.565 60.1445 193.417C60.0075 193.27 59.9038 193.094 59.8404 192.902Z" fill="#FF5D2A"/>
<path d="M57.93 190.51C58.642 191.057 60.0601 190.388 60.0601 190.388C60.0601 190.388 60.3207 188.835 59.6087 188.293C59.4681 188.149 59.2981 188.036 59.1103 187.963C58.9225 187.891 58.7213 187.859 58.5205 187.872C58.3196 187.884 58.1238 187.94 57.9463 188.035C57.7688 188.131 57.6138 188.263 57.4919 188.424C57.3701 188.585 57.2841 188.771 57.24 188.968C57.1958 189.166 57.1944 189.37 57.236 189.568C57.2776 189.766 57.3612 189.953 57.4809 190.115C57.6007 190.278 57.7538 190.413 57.93 190.51Z" fill="#FF5D2A"/>
<path d="M40.6055 176.917C41.1843 176.224 42.7124 176.562 42.7124 176.562C42.7124 176.562 43.2912 178.011 42.7124 178.703C42.6093 178.881 42.469 179.034 42.3012 179.151C42.1333 179.268 41.942 179.348 41.7406 179.383C41.5391 179.419 41.3324 179.41 41.1349 179.357C40.9373 179.304 40.7536 179.208 40.5966 179.076C40.4396 178.945 40.3129 178.78 40.2256 178.594C40.1383 178.408 40.0925 178.205 40.0911 178C40.0897 177.794 40.133 177.591 40.2179 177.404C40.3027 177.217 40.427 177.05 40.5823 176.917H40.6055Z" fill="#FF5D2A"/>
<path d="M42.8976 173.803C43.4765 174.513 42.8109 175.951 42.8109 175.951C42.8109 175.951 41.2711 176.236 40.7212 175.532C40.5742 175.393 40.4585 175.224 40.3822 175.036C40.3058 174.849 40.2706 174.647 40.2787 174.444C40.2869 174.241 40.3381 174.043 40.4292 173.862C40.5204 173.681 40.6492 173.522 40.8068 173.396C40.9645 173.269 41.1473 173.178 41.343 173.129C41.5387 173.08 41.7426 173.074 41.9409 173.111C42.1392 173.148 42.3273 173.227 42.4923 173.344C42.6574 173.46 42.7957 173.611 42.8976 173.786V173.803Z" fill="#FF5D2A"/>
<path d="M45.242 175.77C44.4317 175.375 43.1755 176.317 43.1755 176.317C43.1755 176.317 43.2276 177.889 44.0322 178.278C44.1986 178.392 44.3872 178.468 44.5853 178.501C44.7835 178.535 44.9865 178.525 45.1806 178.473C45.3746 178.42 45.5552 178.327 45.7101 178.198C45.865 178.069 45.9905 177.909 46.0782 177.727C46.1659 177.545 46.2137 177.347 46.2182 177.145C46.2228 176.943 46.1841 176.742 46.1048 176.557C46.0255 176.371 45.9074 176.205 45.7585 176.069C45.6097 175.933 45.4335 175.832 45.242 175.77Z" fill="#FF5D2A"/>
<path d="M56.0662 203.738C56.6451 203.051 58.1731 203.383 58.1731 203.383C58.1731 203.383 58.752 204.837 58.1731 205.53C58.0688 205.706 57.9279 205.856 57.7599 205.972C57.592 206.088 57.4011 206.165 57.2004 206.199C56.9998 206.234 56.7942 206.224 56.5977 206.17C56.4013 206.117 56.2186 206.021 56.0626 205.89C55.9065 205.758 55.7807 205.594 55.6937 205.409C55.6067 205.224 55.5608 205.023 55.5589 204.818C55.557 204.613 55.5994 204.411 55.683 204.224C55.7666 204.038 55.8894 203.872 56.0431 203.738H56.0662Z" fill="#FF5D2A"/>
<path d="M58.3815 200.624C58.9604 201.334 58.2948 202.772 58.2948 202.772C58.2948 202.772 56.755 203.063 56.2051 202.353C56.0581 202.214 55.9424 202.045 55.8661 201.857C55.7897 201.669 55.7545 201.467 55.7626 201.265C55.7707 201.062 55.822 200.864 55.9131 200.683C56.0043 200.502 56.1331 200.343 56.2907 200.216C56.4484 200.09 56.6312 199.999 56.8269 199.95C57.0226 199.901 57.2265 199.894 57.4248 199.931C57.6231 199.969 57.8112 200.048 57.9762 200.164C58.1413 200.281 58.2795 200.432 58.3815 200.607V200.624Z" fill="#FF5D2A"/>
<path d="M60.6969 202.591C59.8923 202.201 58.6304 203.138 58.6304 203.138C58.6304 203.138 58.6825 204.709 59.4928 205.099C59.6593 205.214 59.8485 205.291 60.0472 205.325C60.246 205.359 60.4497 205.35 60.6446 205.297C60.8394 205.245 61.0207 205.151 61.1761 205.022C61.3315 204.893 61.4573 204.731 61.5449 204.549C61.6325 204.366 61.68 204.167 61.684 203.964C61.6879 203.761 61.6482 203.56 61.5677 203.374C61.4871 203.189 61.3676 203.022 61.2173 202.887C61.067 202.752 60.8895 202.651 60.6969 202.591Z" fill="#FF5D2A"/>
<path d="M48.1304 185.279C49.0044 185.081 50.0232 186.274 50.0232 186.274C50.0232 186.274 49.6238 187.799 48.7498 188.02C48.5607 188.099 48.3568 188.135 48.1523 188.127C47.9477 188.119 47.7475 188.065 47.5655 187.971C47.3835 187.877 47.2243 187.744 47.0987 187.581C46.9732 187.419 46.8844 187.231 46.8387 187.03C46.793 186.829 46.7915 186.621 46.8341 186.42C46.8766 186.219 46.9625 186.029 47.0855 185.865C47.2084 185.7 47.3657 185.564 47.5462 185.467C47.7266 185.37 47.926 185.314 48.1304 185.302V185.279Z" fill="#FF5D2A"/>
<path d="M51.829 184.197C51.829 185.093 50.4688 185.849 50.4688 185.849C50.4688 185.849 49.068 185.145 49.0564 184.243C49.0245 184.044 49.0355 183.84 49.0889 183.645C49.1422 183.451 49.2366 183.27 49.3656 183.115C49.4945 182.96 49.6551 182.835 49.8363 182.748C50.0176 182.661 50.2152 182.615 50.416 182.611C50.6168 182.608 50.816 182.648 51.0001 182.729C51.1841 182.81 51.3486 182.929 51.4827 183.08C51.6167 183.23 51.717 183.407 51.7767 183.6C51.8365 183.793 51.8543 183.996 51.829 184.197Z" fill="#FF5D2A"/>
<path d="M52.5123 187.182C52.1071 186.385 50.5383 186.361 50.5383 186.361C50.5383 186.361 49.6354 187.647 50.0406 188.45C50.1024 188.646 50.2058 188.826 50.3437 188.977C50.4816 189.129 50.6506 189.248 50.8391 189.327C51.0275 189.407 51.2308 189.443 51.4349 189.436C51.6389 189.428 51.8389 189.375 52.0208 189.282C52.2026 189.189 52.3621 189.057 52.4881 188.895C52.6141 188.733 52.7036 188.546 52.7504 188.346C52.7971 188.146 52.8001 187.939 52.759 187.738C52.7179 187.537 52.6337 187.347 52.5123 187.182Z" fill="#FF5D2A"/>
<path d="M88.1397 204.459C87.3062 204.797 86.1138 203.778 86.1138 203.778C86.1138 203.778 86.2702 202.213 87.1037 201.875C87.2774 201.773 87.4709 201.709 87.6712 201.689C87.8716 201.668 88.074 201.691 88.2646 201.757C88.4553 201.822 88.6297 201.928 88.7759 202.067C88.9222 202.206 89.0368 202.375 89.1121 202.563C89.1874 202.751 89.2217 202.953 89.2123 203.155C89.203 203.357 89.1503 203.555 89.058 203.735C88.9657 203.915 88.8359 204.073 88.6774 204.198C88.519 204.323 88.3355 204.412 88.1397 204.459Z" fill="#FF5D2A"/>
<path d="M84.6607 206.118C84.5044 205.233 85.7374 204.267 85.7374 204.267C85.7374 204.267 87.2308 204.744 87.3871 205.629C87.4522 205.821 87.4751 206.025 87.4545 206.227C87.4339 206.429 87.3701 206.624 87.2676 206.799C87.165 206.973 87.0261 207.124 86.8603 207.24C86.6945 207.355 86.5058 207.434 86.307 207.469C86.1083 207.505 85.9042 207.497 85.7088 207.446C85.5134 207.395 85.3314 207.302 85.1751 207.174C85.0187 207.045 84.8917 206.885 84.803 206.702C84.7142 206.52 84.6656 206.321 84.6607 206.118Z" fill="#FF5D2A"/>
<path d="M83.5148 203.278C84.0415 204.005 85.5929 203.773 85.5929 203.773C85.5929 203.773 86.2817 202.364 85.755 201.637C85.6614 201.458 85.5306 201.301 85.3714 201.178C85.2122 201.054 85.0284 200.966 84.8324 200.92C84.6365 200.874 84.4329 200.871 84.2358 200.912C84.0386 200.952 83.8525 201.035 83.6899 201.154C83.5273 201.273 83.392 201.426 83.2935 201.602C83.1949 201.778 83.1354 201.974 83.1188 202.176C83.1022 202.377 83.1289 202.58 83.1972 202.77C83.2656 202.96 83.3739 203.134 83.5148 203.278Z" fill="#FF5D2A"/>
<path d="M80.3775 214.736C79.515 214.492 79.1851 212.955 79.1851 212.955C79.1851 212.955 80.2618 211.791 81.1242 212.048C81.3268 212.07 81.5221 212.137 81.6966 212.243C81.871 212.349 82.0204 212.492 82.1345 212.662C82.2486 212.832 82.3246 213.024 82.3572 213.227C82.3899 213.429 82.3784 213.636 82.3236 213.833C82.2688 214.031 82.1718 214.214 82.0397 214.37C81.9075 214.526 81.7432 214.651 81.5581 214.737C81.373 214.823 81.1715 214.867 80.9676 214.867C80.7638 214.867 80.5625 214.822 80.3775 214.736Z" fill="#FF5D2A"/>
<path d="M76.6382 213.915C77.0492 213.118 78.612 213.112 78.612 213.112C78.612 213.112 79.5092 214.404 79.0983 215.202C79.032 215.392 78.9257 215.566 78.7867 215.712C78.6476 215.858 78.4791 215.972 78.2923 216.046C78.1056 216.121 77.9051 216.154 77.7045 216.144C77.5038 216.133 77.3078 216.08 77.1296 215.987C76.9514 215.893 76.7952 215.763 76.6716 215.604C76.548 215.444 76.4599 215.26 76.4132 215.064C76.3666 214.867 76.3626 214.663 76.4014 214.465C76.4402 214.267 76.521 214.08 76.6382 213.915Z" fill="#FF5D2A"/>
<path d="M77.4834 210.959C77.4834 211.861 78.8263 212.629 78.8263 212.629C78.8263 212.629 80.2329 211.937 80.256 211.035C80.2956 210.833 80.291 210.625 80.2425 210.425C80.1939 210.226 80.1024 210.039 79.9747 209.878C79.8469 209.717 79.686 209.587 79.5028 209.495C79.3196 209.403 79.1187 209.353 78.9142 209.348C78.7097 209.342 78.5064 209.381 78.3186 209.463C78.1307 209.544 77.9629 209.666 77.8266 209.82C77.6904 209.973 77.5891 210.154 77.5299 210.351C77.4706 210.548 77.4547 210.756 77.4834 210.959Z" fill="#FF5D2A"/>
<path d="M74.2824 204.803C74.2245 205.699 72.8005 206.345 72.8005 206.345C72.8005 206.345 71.4576 205.536 71.5097 204.634C71.4897 204.43 71.514 204.225 71.5807 204.031C71.6474 203.838 71.7551 203.662 71.8962 203.514C72.0374 203.367 72.2087 203.252 72.3983 203.178C72.588 203.103 72.7914 203.071 72.9946 203.083C73.1977 203.096 73.3958 203.152 73.5751 203.249C73.7544 203.346 73.9107 203.481 74.0331 203.644C74.1556 203.808 74.2413 203.996 74.2844 204.196C74.3274 204.396 74.3267 204.603 74.2824 204.803Z" fill="#FF5D2A"/>
<path d="M74.2764 208.643C73.4139 208.405 73.0781 206.897 73.0781 206.897C73.0781 206.897 74.149 205.734 75.0115 205.984C75.2151 206.004 75.4119 206.069 75.5879 206.174C75.764 206.279 75.9152 206.421 76.031 206.591C76.1467 206.761 76.2243 206.954 76.2582 207.157C76.2921 207.359 76.2815 207.567 76.2273 207.766C76.173 207.964 76.0764 208.148 75.9441 208.305C75.8117 208.462 75.6471 208.588 75.4613 208.674C75.2756 208.761 75.0733 208.805 74.8686 208.805C74.664 208.805 74.4618 208.759 74.2764 208.672V208.643Z" fill="#FF5D2A"/>
<path d="M71.2319 208.463C72.1117 208.3 72.569 206.793 72.569 206.793C72.569 206.793 71.5966 205.559 70.7168 205.722C70.5124 205.726 70.3114 205.775 70.1279 205.865C69.9443 205.956 69.7826 206.085 69.6539 206.245C69.5252 206.404 69.4325 206.59 69.3824 206.789C69.3324 206.989 69.3261 207.196 69.3641 207.398C69.402 207.6 69.4833 207.791 69.6022 207.958C69.7211 208.125 69.8748 208.265 70.0526 208.366C70.2303 208.467 70.4279 208.528 70.6315 208.545C70.8352 208.562 71.0401 208.534 71.2319 208.463Z" fill="#FF5D2A"/>
<path d="M36.6868 281.535H81.8014C81.9571 281.535 82.1109 281.57 82.2514 281.638C82.3919 281.705 82.5156 281.803 82.6137 281.925C82.7119 282.046 82.7819 282.188 82.8186 282.34C82.8554 282.492 82.8578 282.651 82.826 282.804L82.2182 285.626C82.1669 285.86 82.0382 286.069 81.853 286.219C81.6679 286.369 81.4373 286.451 81.1994 286.452H37.7461C37.5338 286.451 37.3267 286.386 37.1522 286.264C36.9776 286.143 36.8436 285.971 36.7678 285.772L35.7086 282.955C35.6499 282.796 35.6302 282.625 35.6512 282.457C35.6723 282.289 35.7334 282.128 35.8295 281.989C35.9255 281.849 36.0536 281.735 36.2028 281.656C36.3521 281.577 36.5182 281.536 36.6868 281.535Z" stroke="#141414" stroke-miterlimit="10"/>
<path d="M40.2639 290.887C40.7675 290.887 78.7915 286.452 78.7915 286.452H39.8066L40.2639 290.887Z" fill="#141414"/>
<path d="M371.151 325.081V47.6831C371.152 41.4643 369.934 35.3064 367.567 29.5608C365.201 23.8152 361.731 18.5946 357.358 14.197C352.984 9.7994 347.791 6.31096 342.077 3.93097C336.362 1.55099 330.237 0.32605 324.051 0.32605H272.795" stroke="#141414" stroke-miterlimit="10"/>
<path d="M222.731 14.1583H330.54L293.685 2.75262C281.434 -1.04066 268.313 -0.914592 256.136 3.11341L222.731 14.1583Z" fill="#FF5D2A"/>
<path d="M56.8535 231.362C140.519 252.66 264.402 335.567 398.854 197.988" stroke="#141414" stroke-miterlimit="10"/>
<path d="M283.972 110.507C297.878 110.507 309.152 99.1741 309.152 85.1937C309.152 71.2133 297.878 59.88 283.972 59.88C270.066 59.88 258.793 71.2133 258.793 85.1937C258.793 99.1741 270.066 110.507 283.972 110.507Z" stroke="#FF5D2A" stroke-width="2" stroke-miterlimit="10"/>
<path d="M283.972 68.0793V85.1937H299.757" stroke="#141414" stroke-width="3" stroke-miterlimit="10" stroke-linecap="round"/>
</g>
<defs>
<clipPath id="clip0_36_100">
<rect width="404" height="326" fill="white"/>
</clipPath>
</defs>
</svg>
