<svg width="375" height="230" viewBox="0 0 375 230" fill="none" xmlns="http://www.w3.org/2000/svg">
<g clip-path="url(#clip0_137_797)">
<path d="M187.367 126.549L186.474 225.905" stroke="#141414" stroke-width="1.16" stroke-miterlimit="10"/>
<path d="M186.851 113.611C186.851 113.611 196.126 118.135 195.511 118.318C194.639 118.632 191.486 117.323 191.486 117.323C191.486 117.323 190.098 118.644 189.381 118.473C188.481 118.266 187.61 117.948 186.789 117.527" stroke="#141414" stroke-width="1.56" stroke-miterlimit="10"/>
<path d="M183.968 116.49C183.968 116.49 192.338 120.263 191.724 120.447C190.851 120.761 187.698 119.447 187.698 119.447C187.698 119.447 186.31 120.769 185.593 120.598C184.693 120.391 183.822 120.073 183.001 119.651" stroke="#141414" stroke-width="1.56" stroke-miterlimit="10"/>
<path d="M209.5 120.354H184.402V121.785H209.5V120.354Z" fill="#141414"/>
<path d="M207.916 120.389L216.368 101.362L217.359 101.693L209.312 120.353L207.916 120.389Z" stroke="#141414" stroke-miterlimit="10"/>
<path d="M111.867 146.861L106.908 106.482C106.813 105.399 107.005 104.311 107.465 103.325C107.594 103.038 107.764 102.77 107.968 102.53C108.552 101.876 109.272 101.357 110.077 101.008L121.482 93.9277" stroke="#141414" stroke-width="1.16" stroke-miterlimit="10"/>
<path d="M120.491 77.0381C118.742 82.1813 122.448 83.3927 122.448 83.3927L122.649 91.6723C122.66 92.1787 122.517 92.6767 122.239 93.1005C121.96 93.5243 121.559 93.854 121.089 94.0461" stroke="#141414" stroke-width="1.16" stroke-miterlimit="10"/>
<path d="M125.143 88.1805L130.704 90.4645C131.136 90.6412 131.616 90.6678 132.066 90.5397C132.515 90.4117 132.908 90.1366 133.181 89.7589L135.122 87.0629C135.969 85.893 136.483 84.5181 136.613 83.0821V83.0821C136.613 83.0821 137.297 78.4365 137.579 74.9248" stroke="#141414" stroke-width="1.16" stroke-miterlimit="10"/>
<path d="M133.734 89.2783C133.705 90.4611 134.045 91.0076 134.827 91.8886C135.61 92.7696 136.728 93.6017 137.907 93.7159" stroke="#141414" stroke-width="1.16" stroke-miterlimit="10"/>
<path d="M121.506 93.9118C130.061 101.894 137.104 94.7276 138.067 93.6182" stroke="#141414" stroke-width="1.16" stroke-miterlimit="10"/>
<path d="M132.735 77.5149C134.93 77.1723 135.642 77.8575 135.642 77.8575" stroke="#141414" stroke-width="0.58" stroke-miterlimit="10"/>
<path d="M137.768 93.7116C129.311 101.747 122.207 94.2337 122.207 94.2337C128.288 97.982 134.582 94.2337 135.241 92.4023L137.768 93.7116Z" fill="#141414"/>
<path d="M138.935 96.5465C137.752 97.689 136.372 98.6092 134.86 99.2628C133.334 99.8907 131.675 100.13 130.032 99.9603C128.409 99.7629 126.837 99.2663 125.397 98.496L124.332 97.9087L123.316 97.2358C122.975 97.0158 122.647 96.7761 122.334 96.5179L121.375 95.7715L122.35 96.4975C122.669 96.7478 123.001 96.9807 123.345 97.1949L124.369 97.8435L125.446 98.4063C126.883 99.1403 128.446 99.5984 130.053 99.7563C131.655 99.8903 133.265 99.624 134.737 98.9814C136.196 98.3152 137.521 97.3906 138.648 96.2527L138.935 96.5465Z" fill="#141414"/>
<path d="M253.329 122.698L176.814 121.724L176.752 126.447L253.272 127.422" stroke="#141414" stroke-width="1.16" stroke-miterlimit="10"/>
<path d="M111.596 146.832C118.202 145.221 174.484 132.557 174.484 132.557C176.711 132.125 226.544 189.658 226.544 189.658L221.63 189.956L168.878 152.624C148.509 166.989 118.333 171.655 111.596 146.832Z" fill="#FF5D2A"/>
<path d="M134.152 225.498C143.509 225.616 151.568 227.333 154.934 229.67L113.271 229.136C116.699 226.888 124.782 225.379 134.152 225.498Z" stroke="#141414" stroke-width="1.56" stroke-miterlimit="10"/>
<path d="M134.152 225.497L132.514 168.632" stroke="#141414" stroke-width="1.56" stroke-miterlimit="10"/>
<path d="M181.355 229.148L180.495 225.828L187.359 225.918C189.84 225.95 192.273 226.734 194.562 227.851C194.685 227.909 194.786 228.007 194.846 228.129C194.906 228.251 194.923 228.39 194.893 228.523C194.864 228.656 194.79 228.775 194.683 228.86C194.577 228.946 194.444 228.993 194.308 228.993L181.355 229.148Z" stroke="#141414" stroke-miterlimit="10"/>
<path d="M222.219 192.986L221.359 189.67L228.219 189.756C230.704 189.788 233.133 190.571 235.426 191.693C235.547 191.752 235.645 191.851 235.704 191.972C235.762 192.094 235.778 192.232 235.748 192.363C235.718 192.495 235.645 192.613 235.54 192.698C235.434 192.782 235.303 192.829 235.168 192.831L222.219 192.986Z" stroke="#141414" stroke-miterlimit="10"/>
<path d="M158.98 152.963L180.471 225.775L186.494 226.187L174.57 132.635L111.596 146.833L158.98 152.963Z" fill="#FF5D2A"/>
<path d="M109.388 168.106L152.427 168.652C153.884 168.671 155.079 167.511 155.098 166.061C155.116 164.612 153.951 163.422 152.494 163.403L109.455 162.857C107.999 162.839 106.803 163.999 106.785 165.448C106.766 166.897 107.932 168.087 109.388 168.106Z" stroke="#141414" stroke-miterlimit="10"/>
<path d="M137.768 93.7119L143.795 94.96C145.015 95.2123 146.127 95.8342 146.978 96.7403C147.829 97.6465 148.378 98.7927 148.55 100.022L151.117 119.326" stroke="#141414" stroke-width="1.16" stroke-miterlimit="10"/>
<path d="M119.615 106.646L127.936 122.626L178.898 115.655L179.558 120.688L122.792 133.826C121.674 134.087 120.501 133.962 119.464 133.471C118.426 132.98 117.587 132.153 117.084 131.126L107.583 112.107" stroke="#141414" stroke-width="1.16" stroke-miterlimit="10"/>
<path d="M150.18 113.297L186.732 113.538L187.018 117.836" stroke="#141414" stroke-width="1.16" stroke-miterlimit="10"/>
<path d="M38.8027 229.592H337.836" stroke="#141414" stroke-width="1.56" stroke-miterlimit="10"/>
<path d="M178.959 115.74C179.103 115.712 183.951 116.315 183.951 116.315L183.132 119.86L179.48 120.439" stroke="#141414" stroke-width="1.16" stroke-miterlimit="10"/>
<path d="M151.654 126.944L152.727 137.769" stroke="#141414" stroke-width="1.16" stroke-miterlimit="10"/>
<path d="M108.304 113.941L116.469 135.036C116.911 136.176 117.775 137.103 118.883 137.628C119.99 138.152 121.258 138.233 122.424 137.855L151.74 127.43L151.404 127.213L122.395 134.004C121.43 134.23 120.418 134.125 119.52 133.706C118.623 133.287 117.895 132.579 117.452 131.696L108.304 113.941Z" fill="#141414"/>
<path d="M153.435 119.15L151.318 113.484L150.319 113.513L151.044 119.562L153.435 119.15Z" fill="#141414"/>
<path d="M137.014 73.7993C137.424 74.6151 137.457 76.3117 137.28 78.1063C137.104 79.9009 136.343 84.5343 135.819 85.9048C135.294 87.2752 133.181 89.7591 133.181 89.7591C132.69 95.5916 134.189 119.325 146.523 115.565C154.541 113.118 144.303 98.9728 139.86 90.6197C135.417 82.2666 144.656 76.8623 137.579 68.2156C136.564 66.992 131.175 63.7698 125.413 66.1762C115.872 70.1285 117.915 88.1113 122.239 93.1158C122.239 93.1158 122.592 92.2756 122.542 87.4057C122.493 82.5358 121.912 83.4862 120.495 81.6671C119.078 79.848 120.131 77.4619 121.314 76.7155C122.497 75.9691 125.818 73.9665 125.892 71.6009C125.892 71.6009 129.95 74.305 133.112 74.5783C136.273 74.8516 137.014 73.7993 137.014 73.7993Z" fill="#141414"/>
<path d="M121.195 76.4177C121.433 77.1845 121.879 78.9832 122.096 79.8805C122.096 79.8935 122.101 79.906 122.111 79.9151C122.12 79.9243 122.132 79.9295 122.145 79.9295C122.158 79.9295 122.171 79.9243 122.18 79.9151C122.189 79.906 122.194 79.8935 122.194 79.8805C122.158 78.7588 122.235 76.1892 123.546 74.9453C125.245 73.3138 121.375 74.3784 121.375 74.3784L121.195 76.4177Z" fill="#141414"/>
<path d="M137.616 77.5512C138.968 77.7103 140.004 78.2853 139.844 79.6313C139.766 80.0937 139.556 80.5242 139.239 80.8713C138.923 81.2184 138.513 81.4675 138.058 81.5891C137.603 81.7107 137.123 81.6996 136.674 81.5572C136.226 81.4147 135.828 81.1469 135.528 80.7856C135.125 80.3018 134.923 79.6833 134.963 79.0562C135.126 77.7102 136.273 77.3921 137.616 77.5512Z" fill="#FF5D2A" stroke="#141414" stroke-width="0.87" stroke-miterlimit="10"/>
<path d="M128.23 78.2611L121.109 77.686L120.913 77.0742L128.566 77.2944" fill="white"/>
<path d="M128.23 78.2611L121.109 77.686L120.913 77.0742L128.566 77.2944" stroke="#141414" stroke-width="0.58" stroke-miterlimit="10"/>
<path d="M130.888 76.7563C132.235 76.9153 133.276 77.4944 133.116 78.8404C133.02 79.4679 132.682 80.0336 132.175 80.4181C131.668 80.8026 131.031 80.9758 130.398 80.9011C129.765 80.8265 129.186 80.5099 128.783 80.0181C128.38 79.5263 128.185 78.8978 128.239 78.2653C128.398 76.9153 129.537 76.5972 130.888 76.7563Z" fill="#FF5D2A" stroke="#141414" stroke-width="0.87" stroke-miterlimit="10"/>
<path d="M265.139 227.847V33.4168C265.138 24.6141 261.627 16.1721 255.377 9.94758C249.128 3.72308 240.652 0.225691 231.814 0.224609H195.552" stroke="#141414" stroke-miterlimit="10"/>
<path d="M160.139 9.93522H236.409L210.332 1.941C201.664 -0.717682 192.382 -0.629271 183.767 2.19393L160.139 9.93522Z" fill="#FF5D2A"/>
<path d="M387 60.9845C286.474 150.086 39.1363 -62.2021 -12 92" stroke="#141414" stroke-miterlimit="10"/>
</g>
<defs>
<clipPath id="clip0_137_797">
<rect width="375" height="230" fill="white"/>
</clipPath>
</defs>
</svg>
