<svg width="404" height="326" viewBox="0 0 404 326" fill="none" xmlns="http://www.w3.org/2000/svg">
<g clip-path="url(#clip0_36_744)">
<path d="M20.3758 255.992C-14.4991 215.424 -10.4244 78.0926 78.7909 95.5202C168.006 112.948 255.782 420.267 404 277.1" stroke="#141414" stroke-miterlimit="10"/>
<path d="M381.534 0.504517H164.323V128.478H381.534V0.504517Z" stroke="#141414" stroke-width="1.56" stroke-miterlimit="10"/>
<path d="M127.068 194.676L133.282 155.3V147.144C133.282 147.144 122.607 146.057 120.783 141.084C118.958 136.11 127.158 107.405 128.235 105.232C129.311 103.059 129.485 101.908 132.102 100.569C134.719 99.23 142.017 95.3041 144.253 93.5771C145.499 92.6082 146.848 91.7817 148.276 91.1129C148.276 91.1129 149.294 89.1725 150.854 89.0238C152.414 88.875 161.89 88.8168 162.548 89.082C163.205 89.3472 164.482 91.3134 164.926 91.4751C165.371 91.6368 167.505 93.8746 176.691 95.9379C185.877 98.0011 201.831 100.53 201.831 100.53L222.987 70.1311L230.903 72.9317L214.001 102.425C214.001 102.425 208.664 113.537 205.621 114.067C202.579 114.598 181.77 116.363 181.77 116.363L182.937 145.262C182.937 145.262 183.788 158.547 184.42 164.95C185.051 171.353 190.518 194.702 190.518 194.702L127.068 194.676Z" fill="white"/>
<path d="M392.001 325.58H93.5798" stroke="#141414" stroke-width="1.18" stroke-miterlimit="10"/>
<path d="M93.5796 325.58H0" stroke="#141414" stroke-width="1.18" stroke-miterlimit="10"/>
<path d="M129.872 194.676L130.62 319.054H139.696L159.46 205.866L156.946 194.676H129.872Z" fill="#FF5D2A"/>
<path d="M156.946 194.676L184.02 319.054H193.406L187.243 194.676H158.377" fill="#FF5D2A"/>
<path d="M201.811 100.575L223.039 70.1376L231.238 73.0352C231.238 73.0352 208.677 112.069 207.226 113.518C205.776 114.966 182.821 116.234 182.821 116.234C182.821 116.234 182.466 132.559 183.311 153.748C183.891 168.139 188.39 180.162 190.621 194.67H127.068L133.282 155.294L133.63 120.089" stroke="#141414" stroke-width="1.18" stroke-miterlimit="10"/>
<path d="M122.027 324.099C124.535 322.262 128.75 319.073 131.883 319.073H139.541V325.619H122.588C122.409 325.623 122.233 325.571 122.085 325.47C121.937 325.369 121.825 325.225 121.763 325.056C121.708 324.886 121.708 324.703 121.763 324.532C121.805 324.359 121.9 324.203 122.033 324.086L122.027 324.099Z" stroke="#141414" stroke-width="1.18" stroke-miterlimit="10"/>
<path d="M202.069 324.099C199.568 322.262 195.346 319.073 192.22 319.073H184.529V325.619H201.496C201.673 325.62 201.847 325.566 201.992 325.464C202.14 325.364 202.253 325.221 202.315 325.054C202.378 324.887 202.386 324.704 202.34 324.532C202.298 324.359 202.203 324.203 202.069 324.086V324.099Z" stroke="#141414" stroke-width="1.18" stroke-miterlimit="10"/>
<path d="M229.06 64.7692C229.06 64.7692 231.838 67.0006 231.561 67.6409C231.284 68.2812 229.06 71.9873 229.06 71.9873L223.039 70.1311L229.144 59.5432C229.173 59.485 229.224 59.4408 229.285 59.4203C229.346 59.398 229.412 59.398 229.472 59.4203C229.538 59.4388 229.595 59.4801 229.634 59.5367C229.667 59.5912 229.685 59.6538 229.685 59.7178L228.75 65.4742" stroke="#141414" stroke-width="1.18" stroke-miterlimit="10"/>
<path d="M146.052 92.1155C147.123 91.4422 148.365 91.094 149.629 91.1129H162.696C164.02 91.0915 165.319 91.48 166.415 92.2254" stroke="#141414" stroke-width="1.18" stroke-miterlimit="10"/>
<path d="M148.057 91.3782L149.236 89.7158C149.431 89.4836 149.679 89.3017 149.958 89.1855C150.236 89.0642 150.539 89.0088 150.841 89.0237H161.987C162.285 89.0105 162.582 89.0635 162.857 89.179C163.132 89.2944 163.378 89.4689 163.579 89.69L164.913 91.4817" stroke="#141414" stroke-width="1.18" stroke-miterlimit="10"/>
<path d="M166.415 92.2253C170.051 95.0843 189.17 99.114 201.811 100.569" stroke="#141414" stroke-width="1.18" stroke-miterlimit="10"/>
<path d="M133.005 147.144C133.005 147.144 125.179 146.646 121.402 142.384C117.624 138.121 126.681 108.486 128.621 104.301C129.023 103.388 129.587 102.555 130.284 101.843C132.657 99.5858 138.8 98.2534 146.078 92.1412" stroke="#141414" stroke-width="1.18" stroke-miterlimit="10"/>
<path d="M156.946 194.676L149.307 264.892L159.731 206.002L156.946 194.676Z" fill="#FF5D2A"/>
<path d="M129.93 198.887C130.884 198.887 187.243 194.67 187.243 194.67H129.872L129.93 198.887Z" fill="#FF5D2A"/>
<path d="M128.834 146.42C129.137 143.309 133.63 120.083 133.63 120.083L132.985 147.138C132.985 147.138 128.763 147.235 128.834 146.42Z" fill="#141414"/>
<path d="M176.665 116.616C176.923 116.616 185.96 116.027 185.96 116.027" stroke="#141414" stroke-width="1.18" stroke-miterlimit="10"/>
<path d="M152.305 84.0499C151.17 84.3668 149.372 84.2246 149.256 83.0991C148.166 73.1516 145.085 75.6417 145.581 68.5076C146.168 60.0994 148.308 55.7788 155.566 54.8087C162.825 53.8385 176.968 56.0182 175.395 60.772C174.389 63.8313 169.974 62.8741 170.199 65.1443C170.425 67.4145 169.387 69.025 169.149 69.8917C169.065 70.2281 168.936 70.849 168.82 71.4828C168.775 71.6126 168.697 71.7285 168.594 71.8192C168.489 71.909 168.362 71.9692 168.227 71.9938C168.092 72.013 167.955 71.9997 167.827 71.955C167.701 71.904 167.59 71.8216 167.505 71.7157C166.86 70.7132 165.868 69.7236 164.707 70.0082C164.091 70.1442 163.51 70.4062 162.999 70.7778C162.478 71.1495 162.039 71.6251 161.71 72.1749C161.39 72.7217 161.188 73.3299 161.117 73.96C161.04 74.588 161.097 75.2252 161.284 75.8292C162.103 78.8562 160.343 81.2364 157.3 82.42C155.657 83.0733 153.723 83.6554 152.305 84.0499Z" fill="#141414"/>
<path d="M164.121 91.2035L165.275 85.971C165.275 85.971 168.942 86.5595 170.116 86.5595C171.289 86.5595 172.617 78.1966 172.694 77.3299C172.771 76.4632 173.655 76.6443 174.286 76.004C174.667 75.6159 173.422 73.6626 172.662 72.673C171.901 71.6834 172.327 69.8724 172.958 68.6629C173.59 67.4534 172.636 64.42 172.153 60.5005" stroke="#141414" stroke-width="1.18" stroke-miterlimit="10"/>
<path d="M151.531 89.0824L151.26 82.9634" stroke="#141414" stroke-width="1.18" stroke-miterlimit="10"/>
<path d="M179.146 116.616L183.781 159.996L182.795 116.215L179.146 116.616Z" fill="#141414"/>
<path d="M223.761 69.3097L231.232 73.0225L223.039 70.1247L223.761 69.3097Z" fill="#141414"/>
<path d="M151.267 87.2128L162.709 89.2115L164.146 91.2037C164.146 91.2037 163.379 88.9851 162.013 89.0174C160.646 89.0498 151.415 88.8557 151.415 88.8557L151.267 87.2128Z" fill="#141414"/>
<path d="M181.669 20.1151L203.406 44.486C205.001 46.2809 207.17 47.4622 209.539 47.8269C211.908 48.1916 214.33 47.717 216.388 46.4846L239.298 32.8309C241.261 31.6552 243.558 31.1671 245.827 31.4434C248.097 31.7197 250.21 32.7447 251.836 34.3573L286.111 68.236C287.104 69.2241 288.288 69.999 289.59 70.5136C290.891 71.0282 292.284 71.2717 293.682 71.2294C295.08 71.187 296.455 70.8597 297.724 70.2672C298.992 69.6748 300.127 68.8297 301.059 67.7833L334.825 30.0756C335.832 28.9584 337.071 28.0754 338.454 27.4884L371.903 13.1362" stroke="#FF5D2A" stroke-miterlimit="10"/>
<path d="M228.05 92.2253H355.143" stroke="#141414" stroke-width="1.56" stroke-miterlimit="10"/>
<path d="M223.595 109.643H362.891" stroke="#141414" stroke-width="1.56" stroke-miterlimit="10"/>
<path d="M382.107 128.659H164V130.664H382.107V128.659Z" fill="#141414"/>
</g>
<defs>
<clipPath id="clip0_36_744">
<rect width="404" height="326" fill="white"/>
</clipPath>
</defs>
</svg>
