<svg width="375" height="306" viewBox="0 0 375 306" fill="none" xmlns="http://www.w3.org/2000/svg">
<path d="M305.036 130.919C332.676 194.153 303.857 267.836 240.669 295.495C177.48 323.154 103.85 294.315 76.2104 231.081C48.5711 167.847 77.3895 94.1644 140.578 66.5055C203.767 38.8465 277.397 67.6854 305.036 130.919Z" fill="url(#paint0_linear_137_573)"/>
<path d="M140.915 144.463C145.168 154.191 140.735 165.527 131.014 169.783C121.293 174.039 109.965 169.603 105.712 159.876C101.459 150.148 105.892 138.811 115.612 134.555C125.333 130.299 136.662 134.735 140.915 144.463Z" fill="url(#paint1_linear_137_573)"/>
<path d="M258.249 93.558C260.691 96.3925 260.23 100.099 257.219 101.837C254.208 103.575 249.787 102.686 247.345 99.8512C244.904 97.0167 245.365 93.3101 248.376 91.5723C251.386 89.8344 255.807 90.7235 258.249 93.558Z" fill="url(#paint2_linear_137_573)"/>
<path d="M302.371 183.377C306.172 184.701 307.769 190.041 305.938 195.303C304.107 200.566 299.541 203.758 295.74 202.434C291.939 201.109 290.342 195.77 292.173 190.507C294.004 185.245 298.57 182.052 302.371 183.377Z" fill="url(#paint3_linear_137_573)"/>
<path d="M186.976 60.5499C187.221 62.6952 182.936 64.9479 177.403 65.5814C171.871 66.2148 167.187 64.9892 166.942 62.8439C166.697 60.6985 170.983 58.4458 176.515 57.8124C182.047 57.1789 186.731 58.4045 186.976 60.5499Z" fill="url(#paint4_linear_137_573)"/>
<path d="M233.849 252.798C236.532 266.779 225.269 280.697 208.693 283.882C192.116 287.068 176.502 278.317 173.819 264.335C171.136 250.353 182.399 236.436 198.975 233.25C215.552 230.064 231.166 238.816 233.849 252.798Z" fill="url(#paint5_linear_137_573)"/>
<path d="M148.488 61.5003C149.321 63.2066 144.354 67.348 137.395 70.7505C130.436 74.153 124.119 75.5281 123.286 73.8219C122.453 72.1156 127.419 67.9742 134.378 64.5717C141.338 61.1692 147.655 59.7941 148.488 61.5003Z" fill="#C00C14"/>
<path d="M149.582 63.7443C151.019 66.6886 146.543 71.8337 139.584 75.2362C132.624 78.6387 125.817 79.0102 124.38 76.0659C122.942 73.1216 127.419 67.9765 134.378 64.574C141.337 61.1715 148.144 60.8 149.582 63.7443Z" fill="#C00C14"/>
<path d="M144.505 61.8552C144.747 62.3517 140.992 64.6859 136.118 67.0689C131.244 69.4519 127.097 70.9812 126.854 70.4848C126.612 69.9883 130.366 67.6541 135.24 65.2711C140.114 62.8881 144.262 61.3588 144.505 61.8552Z" fill="#400003"/>
<path d="M61.4198 199.424C64.374 198.524 69.7455 207.576 73.4172 219.643C77.089 231.709 77.6706 242.221 74.7163 243.121C71.762 244.022 66.3906 234.969 62.7189 222.903C59.0471 210.836 58.4655 200.324 61.4198 199.424Z" fill="url(#paint6_linear_137_573)"/>
<path d="M65.3016 198.24C70.3994 196.687 77.5086 205.21 81.1804 217.276C84.8521 229.343 83.696 240.384 78.5981 241.938C73.5002 243.491 66.3911 234.969 62.7193 222.902C59.0476 210.835 60.2037 199.794 65.3016 198.24Z" fill="url(#paint7_linear_137_573)"/>
<path d="M60.9621 205.919C61.8217 205.657 64.6032 212.295 67.1748 220.746C69.7464 229.198 71.1342 236.261 70.2746 236.523C69.415 236.785 66.6335 230.146 64.0619 221.695C61.4903 213.244 60.1025 206.181 60.9621 205.919Z" fill="#400104"/>
<path d="M166.75 301.62C166.866 299.984 177.171 298.86 189.767 299.11C202.363 299.36 212.48 300.89 212.364 302.527C212.249 304.163 201.944 305.287 189.348 305.037C176.752 304.787 166.635 303.257 166.75 301.62Z" fill="url(#paint8_linear_137_573)"/>
<path d="M166.903 299.471C167.103 296.647 177.475 294.56 190.071 294.81C202.667 295.061 212.716 297.553 212.517 300.378C212.317 303.202 201.944 305.288 189.349 305.038C176.753 304.788 166.703 302.295 166.903 299.471Z" fill="url(#paint9_linear_137_573)"/>
<path d="M172.733 302.976C172.767 302.499 179.946 302.256 188.767 302.431C197.589 302.606 204.713 303.134 204.68 303.611C204.646 304.087 197.467 304.331 188.646 304.155C179.824 303.98 172.7 303.452 172.733 302.976Z" fill="#150303"/>
<path d="M296.505 251.118C294.05 249.999 295.759 240.963 300.323 230.935C304.886 220.907 310.576 213.685 313.031 214.804C315.486 215.923 313.777 224.959 309.213 234.987C304.65 245.015 298.96 252.237 296.505 251.118Z" fill="url(#paint10_linear_137_573)"/>
<path d="M293.278 249.649C289.042 247.719 289.307 238.024 293.87 227.996C298.434 217.968 305.568 211.404 309.804 213.335C314.041 215.266 313.776 224.96 309.212 234.988C304.649 245.016 297.515 251.58 293.278 249.649Z" fill="url(#paint11_linear_137_573)"/>
<path d="M300.556 247.129C299.841 246.803 301.853 240.846 305.049 233.823C308.246 226.8 311.416 221.37 312.13 221.696C312.845 222.021 310.833 227.978 307.636 235.002C304.44 242.025 301.27 247.455 300.556 247.129Z" fill="#130406"/>
<path d="M297.17 111.944C295.781 112.891 291.523 109.061 287.658 103.388C283.794 97.715 281.787 92.3482 283.176 91.4007C284.565 90.4533 288.823 94.2839 292.688 99.9566C296.552 105.629 298.559 110.996 297.17 111.944Z" fill="url(#paint12_linear_137_573)"/>
<path d="M295.345 113.188C292.949 114.823 287.873 111.55 284.009 105.877C280.145 100.204 278.955 94.2804 281.351 92.6455C283.748 91.0105 288.823 94.2838 292.688 99.9564C296.552 105.629 297.742 111.553 295.345 113.188Z" fill="url(#paint13_linear_137_573)"/>
<path d="M296.355 108.494C295.951 108.769 293.429 105.772 290.722 101.799C288.016 97.8263 286.149 94.3821 286.554 94.1065C286.958 93.8308 289.479 96.828 292.186 100.801C294.892 104.774 296.759 108.218 296.355 108.494Z" fill="#3D0002"/>
<path d="M219.375 164.185C219.375 170.821 213.999 176.201 207.367 176.201C200.735 176.201 195.359 170.821 195.359 164.185C195.359 157.549 200.735 152.169 207.367 152.169C213.999 152.169 219.375 157.549 219.375 164.185Z" fill="#91080D"/>
<path d="M115.628 251.986C112.614 254.585 106.661 252.616 102.333 247.588C98.0043 242.56 96.9392 236.377 99.9538 233.778C102.968 231.179 108.921 233.148 113.249 238.176C117.578 243.204 118.643 249.387 115.628 251.986Z" fill="#79080D"/>
<path d="M209.769 82.4753C209.769 86.4571 204.393 89.6849 197.762 89.6849C191.13 89.6849 185.754 86.4571 185.754 82.4753C185.754 78.4935 191.13 75.2656 197.762 75.2656C204.393 75.2656 209.769 78.4935 209.769 82.4753Z" fill="#BD0C14"/>
<path d="M280.631 234.507C283.247 237.507 281.317 243.476 276.32 247.839C271.323 252.202 265.151 253.307 262.535 250.307C259.919 247.307 261.849 241.337 266.846 236.974C271.843 232.611 278.015 231.507 280.631 234.507Z" fill="#580508"/>
<path d="M50.0169 236.966C50.753 239.162 51.132 240.972 51.154 242.397C51.176 243.822 50.8109 244.98 50.0588 245.87C49.3028 246.748 48.1183 247.462 46.5052 248.011L37.372 251.121C35.7816 251.662 34.4254 251.826 33.3033 251.612C32.1812 251.398 31.2078 250.76 30.3833 249.697C29.5587 248.634 28.8108 247.101 28.1396 245.099L26.3204 239.671C26.0192 238.773 25.9303 237.979 26.0539 237.29C26.1623 236.594 26.4641 236.004 26.9595 235.518C27.4549 235.032 28.1172 234.648 28.9464 234.366C30.3778 233.879 31.2536 234.113 31.574 235.069C31.7456 235.581 31.7067 235.993 31.4572 236.306C31.1965 236.623 30.7935 236.894 30.2483 237.117C29.7258 237.333 29.3833 237.539 29.2208 237.733C29.0431 237.921 29.0572 238.321 29.2632 238.936L31.0022 244.124C31.5056 245.626 31.9779 246.733 32.419 247.445C32.8563 248.145 33.3876 248.541 34.0131 248.632C34.6233 248.716 35.4453 248.582 36.4791 248.23L45.476 245.167C46.521 244.811 47.2629 244.4 47.7014 243.934C48.1286 243.472 48.2901 242.783 48.1858 241.868C48.0702 240.956 47.7264 239.647 47.1543 237.941L45.6212 233.367C45.4152 232.752 45.1853 232.425 44.9313 232.385C44.6735 232.333 44.2776 232.379 43.7436 232.523C43.0771 232.686 42.5712 232.707 42.2261 232.583C41.8659 232.452 41.6095 232.159 41.4569 231.704C41.3005 231.2 41.3602 230.774 41.6361 230.426C41.9006 230.083 42.4077 229.783 43.1575 229.528C43.9867 229.246 44.7444 229.146 45.4304 229.23C46.1051 229.317 46.695 229.604 47.2 230.091C47.7012 230.567 48.1025 231.254 48.4037 232.153L50.0169 236.966Z" fill="#141414"/>
<path d="M43.9777 213.293C44.1483 214.383 43.7003 215.013 42.6337 215.183L30.1542 217.166L30.9554 222.287C31.1372 223.449 30.7303 224.109 29.7348 224.267C28.7393 224.426 28.1507 223.924 27.9689 222.762L25.849 209.211C25.6673 208.049 26.0741 207.389 27.0697 207.231C28.0652 207.072 28.6538 207.574 28.8356 208.736L29.6312 213.822L42.1107 211.839C42.5966 211.762 43.0059 211.855 43.3385 212.118C43.683 212.379 43.8961 212.771 43.9777 213.293Z" fill="#141414"/>
<path d="M48.7229 194.441C48.7026 195.389 48.5239 196.171 48.1867 196.788C47.8617 197.393 47.3661 197.838 46.6998 198.124C46.0336 198.41 45.2026 198.542 44.2068 198.52C43.5589 198.506 43.0637 198.369 42.7212 198.11C42.3789 197.838 42.213 197.457 42.2235 196.965C42.2343 196.461 42.3923 196.086 42.6976 195.841C43.0029 195.595 43.4435 195.479 44.0194 195.491C44.6912 195.506 45.137 195.425 45.3568 195.25C45.5769 195.063 45.6929 194.687 45.7049 194.123L45.9423 183.002C45.9526 182.522 45.893 182.221 45.7636 182.098C45.6342 181.975 45.2935 181.908 44.7417 181.896L40.0268 181.793C41.0505 183.316 41.5336 185.427 41.476 188.126L41.4537 189.17C41.4048 191.462 41.1558 193.287 40.7067 194.645C40.2578 195.992 39.5473 196.949 38.5749 197.516C37.5906 198.083 36.2767 198.348 34.633 198.312L25.7071 198.119C24.5554 198.094 23.9903 197.578 24.0118 196.57C24.0333 195.562 24.6199 195.071 25.7717 195.096L34.5896 195.287C35.6453 195.31 36.4462 195.183 36.9922 194.907C37.5265 194.618 37.8931 194.032 38.092 193.148C38.2792 192.252 38.392 190.904 38.4304 189.105L38.4527 188.061C38.4977 185.949 38.0755 184.362 37.186 183.298C36.2845 182.234 34.904 181.682 33.0444 181.642L26.062 181.491C24.9103 181.466 24.3452 180.949 24.3667 179.942C24.3882 178.934 24.9748 178.442 26.1266 178.467L44.2303 178.86C45.9819 178.898 47.2175 179.213 47.937 179.804C48.6565 180.396 49.0012 181.4 48.971 182.816L48.7229 194.441Z" fill="#141414"/>
<path d="M45.406 170.167C45.1968 171.153 44.4939 171.517 43.2973 171.259L41.6433 170.903C39.7782 170.501 39.0475 169.435 39.4514 167.705L39.6457 166.79L40.0132 168.526C36.6173 165.106 32.0885 162.804 26.4269 161.62L28.7809 150.527L42.4705 153.478L42.6723 152.527C43.0061 150.954 44.088 150.365 45.9179 150.759L47.572 151.116C48.7685 151.374 49.2621 151.996 49.0529 152.982C48.8436 153.968 48.1407 154.332 46.9442 154.074L45.5014 153.763L42.4822 167.99L43.9251 168.301C45.1216 168.559 45.6152 169.181 45.406 170.167ZM40.1202 164.553L41.8204 156.542L31.0868 154.228L30.063 159.053C33.869 160.02 37.2214 161.854 40.1202 164.553Z" fill="#141414"/>
<path d="M54.4661 128.16C54.0785 129.091 53.3101 129.313 52.1607 128.827L41.9155 124.493L48.8986 140.873L47.8121 143.482L33.522 137.438C32.4389 136.979 32.0911 136.285 32.4786 135.355C32.8661 134.424 33.6346 134.202 34.784 134.688L45.1618 139.078L38.0876 122.542L39.1325 120.033L53.4227 126.077C54.5058 126.535 54.8536 127.23 54.4661 128.16Z" fill="#141414"/>
<path d="M59.1893 117.734C58.5087 118.78 57.7479 119.025 56.9069 118.469C56.066 117.914 55.9858 117.113 56.6664 116.067C56.902 115.704 56.9527 115.263 56.8187 114.743C56.6812 114.206 56.4597 113.744 56.1543 113.355C55.7315 112.817 55.4057 112.371 55.177 112.019C54.9482 111.666 54.7553 111.237 54.5981 110.73C53.7419 111.43 52.8793 111.788 52.0103 111.803C51.1413 111.819 50.1962 111.489 49.175 110.814C48.0637 110.08 47.345 109.281 47.0188 108.418C46.6991 107.545 46.774 106.473 47.2436 105.201C47.7097 103.913 48.5775 102.293 49.8471 100.341L52.8705 95.6944C53.1061 95.3323 53.421 95.1233 53.8153 95.0674C54.1995 95.0049 54.5969 95.1093 55.0074 95.3805L66.841 103.2C67.2114 103.445 67.4283 103.761 67.4914 104.148C67.5712 104.532 67.4835 104.919 67.2282 105.312C66.9992 105.664 66.686 105.881 66.2887 105.964C65.9079 106.043 65.5423 105.967 65.1919 105.735L60.5966 102.698L58.1229 106.501C57.6452 107.235 57.3287 107.831 57.1736 108.29C57.0185 108.748 57.0224 109.182 57.1853 109.592C57.3548 109.992 57.686 110.484 58.1789 111.068C59.0607 112.111 59.5936 113.262 59.7774 114.519C59.9678 115.767 59.7717 116.838 59.1893 117.734ZM55.2662 105.346L58.0737 101.031L54.5296 98.6893L51.7221 103.004C51.1332 103.91 50.6641 104.686 50.315 105.332C49.9624 105.962 49.8048 106.513 49.8422 106.983C49.8761 107.437 50.1734 107.849 50.734 108.22C51.3548 108.63 51.8967 108.765 52.3599 108.625C52.823 108.486 53.276 108.13 53.7187 107.56C54.1679 106.979 54.6838 106.242 55.2662 105.346Z" fill="#141414"/>
<path d="M86.507 82.0848C84.8052 83.6202 83.307 84.6891 82.0124 85.2915C80.7187 85.8768 79.5268 85.9986 78.4368 85.6569C77.3467 85.3151 76.2478 84.5207 75.1401 83.2736L68.6849 76.0067C67.7764 74.9839 67.2054 73.9798 66.9721 72.9944C66.7308 72 66.8165 70.9852 67.2292 69.9502C67.6429 68.8982 68.3696 67.7738 69.4093 66.5772C70.0878 65.7872 70.9547 64.8839 72.0098 63.8674C73.0658 62.8338 74.1952 61.7743 75.398 60.6891C76.3246 59.8531 77.1306 59.8209 77.816 60.5925C78.1507 60.9693 78.2685 61.3639 78.1696 61.7765C78.0706 62.189 77.7805 62.6124 77.2994 63.0464C76.8539 63.4484 76.4485 63.8141 76.0832 64.1437C75.7268 64.4652 75.3967 64.7712 75.0928 65.0615C74.781 65.3428 74.4732 65.6287 74.1693 65.919C73.8664 66.1923 73.5536 66.4907 73.2309 66.8141C72.3086 67.7271 71.5503 68.5809 70.9561 69.3756C70.3629 70.1533 70.0132 70.8889 69.9072 71.5826C69.802 72.2593 70.0244 72.9072 70.5743 73.5262L76.4814 68.1966C78.0495 66.7818 79.4447 65.8139 80.6671 65.2928C81.8905 64.7548 83.0299 64.6642 84.0852 65.0211C85.1495 65.37 86.2196 66.15 87.2954 67.3612L89.8058 70.1872C90.8976 71.4163 91.548 72.5912 91.7569 73.7117C91.9579 74.8234 91.6945 75.9903 90.9666 77.2127C90.2387 78.4351 89.0195 79.818 87.3088 81.3614L86.507 82.0848ZM84.4987 79.824L85.3005 79.1005C86.637 77.8947 87.5791 76.9316 88.1268 76.2112C88.6755 75.4737 88.8814 74.8111 88.7446 74.2235C88.6087 73.6188 88.1901 72.9217 87.4888 72.1322L85.1219 69.4676C84.4206 68.6781 83.7922 68.1785 83.2366 67.9686C82.681 67.7587 82.045 67.8558 81.3285 68.2598C80.612 68.6638 79.6657 69.3964 78.4897 70.4575L72.5559 75.8111L77.3853 81.2479C78.0866 82.0374 78.7235 82.5375 79.2959 82.7483C79.8693 82.9421 80.5455 82.8089 81.3243 82.3486C82.1041 81.8713 83.1622 81.0298 84.4987 79.824Z" fill="#141414"/>
<path d="M106.094 73.7713C105.248 74.2738 104.516 73.9968 103.898 72.9402L93.6671 55.4441C93.0856 54.4497 93.2385 53.689 94.1258 53.1619C94.59 52.8862 94.9947 52.8412 95.3397 53.0271C95.695 53.2069 96.0786 53.6489 96.4906 54.3533L97.0358 55.2856L96.208 54.9398C96.44 53.839 96.9604 52.8391 97.7691 51.94C98.5821 51.0245 99.6386 50.1806 100.939 49.4085L101.836 48.8754C103.817 47.6988 105.497 46.9455 106.874 46.6156C108.252 46.2857 109.439 46.3902 110.436 46.929C111.426 47.4574 112.336 48.4312 113.166 49.8503L115.074 53.1134C115.904 54.5325 116.311 55.8118 116.296 56.9511C116.275 58.0801 115.793 59.169 114.85 60.2179C113.916 61.2607 112.475 62.3612 110.525 63.5194L104.118 67.3249L106.498 71.3959C107.116 72.4525 106.982 73.2443 106.094 73.7713ZM102.591 64.7145L108.998 60.909C110.525 60.002 111.623 59.2523 112.291 58.66C112.954 58.0572 113.275 57.4545 113.256 56.8516C113.231 56.2384 112.952 55.476 112.419 54.5644L110.62 51.4878C110.081 50.5659 109.549 49.9536 109.025 49.6511C108.511 49.3423 107.824 49.3453 106.966 49.6598C106.111 49.9579 104.91 50.5666 103.363 51.4858L102.465 52.0189C100.598 53.1281 99.4496 54.3264 99.0209 55.6139C98.5965 56.8848 98.8537 58.3231 99.7926 59.9287L102.591 64.7145Z" fill="#141414"/>
<path d="M135.718 51.0537C133.545 51.8205 131.747 52.2388 130.323 52.3087C128.906 52.3632 127.758 52.0369 126.877 51.3298C126.003 50.6073 125.295 49.4639 124.751 47.8996L123.51 44.329C122.967 42.7648 122.815 41.4314 123.054 40.3289C123.301 39.2111 123.997 38.2338 125.142 37.3971C126.294 36.5451 127.956 35.7358 130.129 34.969L131.113 34.6216C133.286 33.8548 135.081 33.4442 136.497 33.3896C137.914 33.3351 139.059 33.6691 139.932 34.3915C140.802 35.1027 141.507 36.2347 142.046 37.7877L142.684 39.624L127 45.159L127.567 46.7913C127.914 47.7888 128.312 48.4946 128.76 48.9089C129.217 49.3078 129.899 49.4425 130.806 49.313C131.71 49.1722 133.016 48.8003 134.725 48.1973L139.953 46.3523C140.485 46.1646 140.802 45.9444 140.905 45.6918C141.019 45.4352 140.978 45.0235 140.781 44.4568C140.584 43.89 140.555 43.404 140.694 42.9988C140.844 42.5895 141.145 42.305 141.597 42.1453C142.065 41.9929 142.477 42.0448 142.833 42.301C143.185 42.5458 143.467 42.9743 143.68 43.5864C144.007 44.5272 144.137 45.3593 144.071 46.0826C144.001 46.7945 143.722 47.4017 143.236 47.9041C142.762 48.4024 142.077 48.8094 141.183 49.1249L135.718 51.0537ZM126.025 42.2965L138.823 37.7798C138.352 36.8263 137.73 36.3333 136.956 36.3008C136.494 36.2859 135.847 36.3805 135.016 36.5847C134.196 36.7849 133.226 37.0827 132.106 37.4781L131.121 37.8255C129.899 38.2568 128.902 38.6596 128.13 39.0338C127.366 39.3927 126.826 39.723 126.512 40.0248C125.932 40.5478 125.769 41.3051 126.025 42.2965Z" fill="#141414"/>
<path d="M155.421 44.9919C154.424 45.1403 153.842 44.6446 153.675 43.5048L151.639 29.6132C151.468 28.4497 151.858 27.7972 152.807 27.6558C153.852 27.5003 154.459 28.0043 154.63 29.1679L155.355 34.119L167.391 32.3271L166.665 27.376C166.494 26.2125 166.908 25.5565 167.905 25.408C168.902 25.2596 169.486 25.7671 169.656 26.9307L171.692 40.8222C171.859 41.9621 171.445 42.6062 170.448 42.7546C169.45 42.9031 168.868 42.4074 168.701 41.2676L167.829 35.3191L155.794 37.111L156.666 43.0595C156.833 44.1993 156.418 44.8434 155.421 44.9919Z" fill="#141414"/>
<path d="M180.944 44.5675C179.937 44.531 179.455 43.9011 179.499 42.6779L179.559 40.9869C179.627 39.0802 180.548 38.1769 182.322 38.2773L183.257 38.3112L181.612 38.972C184.382 35.0378 185.853 30.1799 186.023 24.3983L197.356 24.8093L196.856 38.8044L197.827 38.8396C199.434 38.8979 200.204 39.8624 200.138 41.7332L200.077 43.4241C200.034 44.6474 199.508 45.2407 198.501 45.2042C197.493 45.1676 197.012 44.5378 197.055 43.3145L197.108 41.8395L182.573 41.3124L182.521 42.7875C182.477 44.0107 181.952 44.604 180.944 44.5675ZM185.541 38.394L193.726 38.6909L194.118 27.7178L189.189 27.5391C188.905 31.4554 187.689 35.0737 185.541 38.394Z" fill="#141414"/>
<path d="M210.823 34.525C210.494 34.4575 210.231 34.275 210.034 33.9774C209.837 33.6798 209.771 33.3663 209.838 33.0369C209.907 32.6958 210.088 32.4329 210.382 32.2482C210.679 32.0518 210.992 31.9873 211.321 32.0547L221.055 34.049C221.396 34.1188 221.659 34.3013 221.844 34.5965C222.044 34.8824 222.109 35.1958 222.04 35.537C221.974 35.8663 221.792 36.1292 221.496 36.3257C221.211 36.5245 220.898 36.589 220.557 36.5192L210.823 34.525Z" fill="#FF5D2A"/>
<path d="M227.105 50.1055C226.162 49.7482 225.905 48.9961 226.333 47.8494L226.925 46.2643C227.592 44.4768 228.75 43.9147 230.398 44.578L231.273 44.9099L229.506 45.0101C233.374 42.1643 236.302 38.0257 238.291 32.5942L248.894 36.6144L243.997 49.7342L244.906 50.0788C246.409 50.6488 246.834 51.8107 246.179 53.5645L245.588 55.1497C245.159 56.2964 244.474 56.6911 243.532 56.3337C242.589 55.9764 242.332 55.2243 242.76 54.0776L243.276 52.6948L229.677 47.5387L229.161 48.9215C228.733 50.0682 228.047 50.4629 227.105 50.1055ZM233.41 45.7203L241.068 48.6238L244.908 38.3371L240.297 36.5886C238.79 40.2138 236.494 43.2577 233.41 45.7203Z" fill="#141414"/>
<path d="M266.78 65.3561C265.918 64.8339 265.806 64.0369 266.445 62.965L272.142 53.4103L255.038 57.9509L252.621 56.4871L260.567 43.16C261.169 42.1499 261.901 41.9059 262.763 42.428C263.626 42.9502 263.737 43.7472 263.098 44.8192L257.328 54.4975L274.598 49.8891L276.923 51.297L268.977 64.6241C268.375 65.6342 267.642 65.8782 266.78 65.3561Z" fill="#141414"/>
<path d="M279.036 73.7539C277.886 72.7186 277.337 71.7004 277.39 70.6991C277.452 69.7059 278.12 68.4907 279.393 67.0533C280.204 66.137 280.985 66.0159 281.734 66.6901C282.483 67.3642 282.452 68.1594 281.641 69.0757L281.211 69.5608C280.79 70.0369 280.574 70.4075 280.563 70.6726C280.57 70.9367 280.792 71.2654 281.229 71.6586L286.127 76.0646C288.375 78.087 289.833 78.7209 290.501 77.9663C291.162 77.2207 291.382 76.4744 291.162 75.7276C290.958 74.9798 290.255 74.0642 289.05 72.9808L286.748 70.9102C285.821 70.0756 285.675 69.2989 286.311 68.5803C287.012 67.7898 287.825 67.8118 288.753 68.6464L291.055 70.717C291.938 71.5115 292.656 72.0765 293.209 72.412C293.769 72.7386 294.242 72.8653 294.627 72.7922C295.029 72.7182 295.421 72.4656 295.803 72.0344C296.471 71.2798 295.673 69.8833 293.406 67.8449L288.509 63.4389C288.071 63.0457 287.718 62.8652 287.449 62.8976C287.197 62.9289 286.86 63.1827 286.438 63.6588L286.009 64.1439C285.197 65.0602 284.417 65.1813 283.667 64.5071C282.918 63.833 282.949 63.0378 283.761 62.1215C285.034 60.6842 286.156 59.8782 287.128 59.7036C288.109 59.537 289.175 59.9713 290.326 61.0066L295.599 65.7496C297.392 67.3627 298.473 68.884 298.842 70.3134C299.22 71.7509 298.868 73.0805 297.786 74.3022C297.261 74.8951 296.701 75.3194 296.106 75.575C295.527 75.8296 294.914 75.9071 294.265 75.8074C294.496 77.1935 294.07 78.4974 292.988 79.7192C291.906 80.9409 290.635 81.4439 289.175 81.2281C287.724 81.0204 286.102 80.11 284.309 78.4969L279.036 73.7539Z" fill="#141414"/>
<path d="M304.941 101.527C304.758 101.29 304.678 101.04 304.703 100.776C304.717 100.521 304.917 100.181 305.302 99.7569C305.695 99.3423 306.349 98.7758 307.265 98.0574L306.77 98.9485C305.487 98.9945 304.336 98.6923 303.318 98.0419C302.317 97.3936 301.347 96.4616 300.408 95.246L298.362 92.5962C297.562 91.561 297.249 90.4492 297.423 89.2606C297.614 88.0741 298.403 86.9365 299.791 85.8477C300.659 85.1663 301.501 84.7348 302.316 84.5531C303.14 84.364 303.968 84.4242 304.798 84.7337C305.638 85.0357 306.502 85.5855 307.391 86.3829C308.28 87.1803 309.223 88.2248 310.22 89.5164L313.939 94.3315L312.14 94.0043L314.236 92.3601C314.651 92.0342 314.87 91.7482 314.892 91.502C314.922 91.2654 314.757 90.9144 314.397 90.449L311.295 86.4317C310.554 85.4724 309.962 84.7549 309.518 84.2791C309.083 83.8128 308.717 83.5354 308.421 83.4471C308.135 83.3514 307.857 83.394 307.587 83.5749C307.067 83.9221 306.634 84.117 306.288 84.1597C305.942 84.2024 305.585 83.9863 305.219 83.5115C304.602 82.7137 304.804 81.9149 305.824 81.115C306.947 80.2336 308.127 80.0631 309.363 80.6033C310.609 81.1362 311.994 82.3904 313.52 84.3658L316.931 88.782C317.87 89.9976 318.242 91.0783 318.047 92.0239C317.853 92.9696 317.047 93.9979 315.631 95.1089L307.247 101.686C306.341 102.397 305.572 102.344 304.941 101.527ZM300.694 90.9042L302.674 93.4684C304.061 95.2634 305.402 96.2546 306.699 96.442C308.013 96.6314 309.449 96.1151 311.007 94.8931L310.969 95.1973L307.954 91.294C306.986 90.0404 306.158 89.096 305.471 88.461C304.8 87.8281 304.174 87.4883 303.592 87.4415C303.017 87.4042 302.394 87.6485 301.724 88.1744C301.12 88.6484 300.724 89.1269 300.536 89.6099C300.355 90.1023 300.408 90.5338 300.694 90.9042Z" fill="#141414"/>
<path d="M318.808 124.811C318.348 123.914 318.672 123.177 319.779 122.601L329.645 117.463L312.7 112.345L311.411 109.83L325.172 102.664C326.215 102.121 326.967 102.298 327.427 103.194C327.887 104.091 327.563 104.828 326.456 105.405L316.462 110.609L333.584 115.756L334.824 118.175L321.063 125.342C320.02 125.885 319.268 125.708 318.808 124.811ZM330.483 107.813C329.837 106.553 329.701 105.501 330.077 104.655C330.464 103.805 331.429 102.978 332.972 102.174L334.345 101.459L335.724 104.15L333.841 105.131C333.362 105.38 333.091 105.589 333.029 105.757C332.977 105.919 333.066 106.224 333.296 106.673L334.971 109.94C335.196 110.378 335.386 110.617 335.542 110.658C335.714 110.704 336.039 110.602 336.518 110.352L338.402 109.371L339.781 112.062L338.408 112.777C336.844 113.592 335.611 113.91 334.71 113.73C333.824 113.555 333.056 112.832 332.404 111.561L330.483 107.813Z" fill="#141414"/>
<path d="M324.266 136.81C323.987 135.841 324.4 135.195 325.505 134.871L338.977 130.919C340.106 130.588 340.803 130.884 341.07 131.806C341.363 132.821 340.945 133.493 339.816 133.824L335.015 135.233L338.391 146.923L343.193 145.515C344.321 145.184 345.025 145.502 345.305 146.471C345.584 147.439 345.16 148.089 344.032 148.42L330.559 152.372C329.454 152.696 328.761 152.374 328.482 151.405C328.202 150.437 328.615 149.791 329.72 149.466L335.489 147.774L332.113 136.084L326.344 137.776C325.239 138.1 324.546 137.778 324.266 136.81Z" fill="#141414"/>
<path d="M332.717 177.484C332.689 177.185 332.755 176.932 332.916 176.723C333.065 176.516 333.416 176.337 333.968 176.188C334.522 176.05 335.378 175.925 336.536 175.813L335.642 176.298C334.531 175.645 333.719 174.771 333.205 173.675C332.705 172.59 332.382 171.283 332.236 169.754L331.92 166.421C331.796 165.119 332.125 164.014 332.907 163.107C333.702 162.211 334.977 161.678 336.733 161.509C337.832 161.403 338.775 161.492 339.561 161.778C340.36 162.063 341.027 162.559 341.565 163.267C342.114 163.973 342.552 164.902 342.878 166.052C343.204 167.202 343.444 168.589 343.599 170.214L344.174 176.27L342.826 175.026L345.478 174.77C346.003 174.72 346.341 174.597 346.491 174.401C346.643 174.218 346.691 173.833 346.635 173.248L346.155 168.195C346.041 166.988 345.923 166.065 345.802 165.426C345.682 164.799 345.521 164.368 345.318 164.134C345.127 163.9 344.869 163.786 344.544 163.793C343.918 163.805 343.448 163.736 343.132 163.586C342.816 163.435 342.63 163.062 342.573 162.464C342.478 161.461 343.075 160.897 344.365 160.772C345.787 160.635 346.876 161.127 347.634 162.247C348.403 163.367 348.905 165.169 349.141 167.654L349.669 173.209C349.814 174.738 349.552 175.848 348.882 176.54C348.213 177.231 346.982 177.663 345.19 177.836L334.584 178.859C333.437 178.97 332.815 178.511 332.717 177.484ZM334.797 166.252L335.103 169.478C335.317 171.736 335.923 173.293 336.921 174.149C337.931 175.016 339.422 175.354 341.393 175.164L341.198 175.4L340.732 170.49C340.582 168.913 340.386 167.672 340.143 166.767C339.914 165.873 339.565 165.25 339.098 164.897C338.632 164.556 337.974 164.427 337.126 164.509C336.362 164.582 335.771 164.772 335.354 165.077C334.938 165.395 334.752 165.786 334.797 166.252Z" fill="#141414"/>
<path d="M333.491 190.474C333.522 189.514 334.018 189.05 334.977 189.082L335.877 189.112C336.812 189.143 337.264 189.638 337.233 190.598L337.205 191.461C337.176 192.373 336.693 192.813 335.758 192.782L334.858 192.752C333.899 192.72 333.434 192.249 333.463 191.337L333.491 190.474Z" fill="#FF5D2A"/>
<defs>
<linearGradient id="paint0_linear_137_573" x1="140.578" y1="66.5056" x2="240.789" y2="295.442" gradientUnits="userSpaceOnUse">
<stop stop-color="#C50D15"/>
<stop offset="1" stop-color="#280001"/>
</linearGradient>
<linearGradient id="paint1_linear_137_573" x1="115.612" y1="134.555" x2="131.032" y2="169.775" gradientUnits="userSpaceOnUse">
<stop stop-color="#1F0406"/>
<stop offset="1" stop-color="#A8111A"/>
</linearGradient>
<linearGradient id="paint2_linear_137_573" x1="248.376" y1="91.572" x2="255.03" y2="103.1" gradientUnits="userSpaceOnUse">
<stop stop-color="#190306"/>
<stop offset="1" stop-color="#E0131F"/>
</linearGradient>
<linearGradient id="paint3_linear_137_573" x1="292.173" y1="190.507" x2="305.94" y2="195.297" gradientUnits="userSpaceOnUse">
<stop stop-color="#2E0508"/>
<stop offset="1" stop-color="#7D060D"/>
</linearGradient>
<linearGradient id="paint4_linear_137_573" x1="176.515" y1="57.8122" x2="177.405" y2="65.581" gradientUnits="userSpaceOnUse">
<stop stop-color="#420609"/>
<stop offset="1" stop-color="#DF131E"/>
</linearGradient>
<linearGradient id="paint5_linear_137_573" x1="198.975" y1="233.25" x2="208.706" y2="283.88" gradientUnits="userSpaceOnUse">
<stop stop-color="#150305"/>
<stop offset="1" stop-color="#70090F"/>
</linearGradient>
<linearGradient id="paint6_linear_137_573" x1="75.283" y1="243.493" x2="63.2594" y2="197.836" gradientUnits="userSpaceOnUse">
<stop stop-color="#6F060A"/>
<stop offset="1" stop-color="#8C080E"/>
</linearGradient>
<linearGradient id="paint7_linear_137_573" x1="79.4656" y1="242.218" x2="66.7027" y2="196.738" gradientUnits="userSpaceOnUse">
<stop stop-color="#6F060A"/>
<stop offset="1" stop-color="#8C080E"/>
</linearGradient>
<linearGradient id="paint8_linear_137_573" x1="214.571" y1="301.566" x2="166.664" y2="303.998" gradientUnits="userSpaceOnUse">
<stop stop-color="#2A0001"/>
<stop offset="1" stop-color="#360103"/>
</linearGradient>
<linearGradient id="paint9_linear_137_573" x1="214.776" y1="298.689" x2="166.696" y2="298.678" gradientUnits="userSpaceOnUse">
<stop stop-color="#2A0001"/>
<stop offset="1" stop-color="#360103"/>
</linearGradient>
<linearGradient id="paint10_linear_137_573" x1="296.224" y1="250.701" x2="313.054" y2="214.662" gradientUnits="userSpaceOnUse">
<stop stop-color="#380103"/>
<stop offset="1" stop-color="#470205"/>
</linearGradient>
<linearGradient id="paint11_linear_137_573" x1="292.715" y1="249.103" x2="309.405" y2="212.998" gradientUnits="userSpaceOnUse">
<stop stop-color="#380103"/>
<stop offset="1" stop-color="#470205"/>
</linearGradient>
<linearGradient id="paint12_linear_137_573" x1="281.815" y1="89.6849" x2="298.641" y2="111.302" gradientUnits="userSpaceOnUse">
<stop stop-color="#92090E"/>
<stop offset="1" stop-color="#82070C"/>
</linearGradient>
<linearGradient id="paint13_linear_137_573" x1="279.895" y1="90.9947" x2="296.167" y2="113.077" gradientUnits="userSpaceOnUse">
<stop stop-color="#92090E"/>
<stop offset="1" stop-color="#82070C"/>
</linearGradient>
</defs>
</svg>
